G04 #@! TF.GenerationSoftware,KiCad,Pcbnew,5.1.5+dfsg1-2*
G04 #@! TF.CreationDate,2020-01-28T14:08:21-06:00*
G04 #@! TF.ProjectId,RS232-multiport,52533233-322d-46d7-956c-7469706f7274,2.0.0*
G04 #@! TF.SameCoordinates,Original*
G04 #@! TF.FileFunction,Copper,L2,Bot*
G04 #@! TF.FilePolarity,Positive*
%FSLAX46Y46*%
G04 Gerber Fmt 4.6, Leading zero omitted, Abs format (unit mm)*
G04 Created by KiCad (PCBNEW 5.1.5+dfsg1-2) date 2020-01-28 14:08:21*
%MOMM*%
%LPD*%
G04 APERTURE LIST*
%ADD10C,0.050000*%
%ADD11C,4.000000*%
%ADD12C,1.600000*%
%ADD13R,1.600000X1.600000*%
%ADD14O,2.400000X1.600000*%
%ADD15R,2.400000X1.600000*%
%ADD16O,1.727200X1.727200*%
%ADD17R,1.727200X1.727200*%
%ADD18C,0.800000*%
%ADD19C,0.762000*%
G04 APERTURE END LIST*
D10*
X76200000Y-182880000D02*
X127000000Y-182880000D01*
X71120000Y-25400000D02*
X71120000Y-177800000D01*
X76200000Y-20320000D02*
X127000000Y-20320000D01*
X71120000Y-25400000D02*
G75*
G02X76200000Y-20320000I5080000J0D01*
G01*
X76200000Y-182880000D02*
G75*
G02X71120000Y-177800000I0J5080000D01*
G01*
X132080000Y-177800000D02*
G75*
G02X127000000Y-182880000I-5080000J0D01*
G01*
X132080000Y-177800000D02*
X132080000Y-25400000D01*
X127000000Y-20320000D02*
G75*
G02X132080000Y-25400000I0J-5080000D01*
G01*
D11*
X120800000Y-34030000D03*
X120800000Y-59030000D03*
D12*
X122220000Y-42375000D03*
X122220000Y-45145000D03*
X122220000Y-47915000D03*
X122220000Y-50685000D03*
X119380000Y-40990000D03*
X119380000Y-43760000D03*
X119380000Y-46530000D03*
X119380000Y-49300000D03*
D13*
X119380000Y-52070000D03*
D14*
X90170000Y-110490000D03*
X97790000Y-92710000D03*
X90170000Y-107950000D03*
X97790000Y-95250000D03*
X90170000Y-105410000D03*
X97790000Y-97790000D03*
X90170000Y-102870000D03*
X97790000Y-100330000D03*
X90170000Y-100330000D03*
X97790000Y-102870000D03*
X90170000Y-97790000D03*
X97790000Y-105410000D03*
X90170000Y-95250000D03*
X97790000Y-107950000D03*
X90170000Y-92710000D03*
D15*
X97790000Y-110490000D03*
D11*
X120800000Y-144520000D03*
X120800000Y-169520000D03*
D12*
X122220000Y-152865000D03*
X122220000Y-155635000D03*
X122220000Y-158405000D03*
X122220000Y-161175000D03*
X119380000Y-151480000D03*
X119380000Y-154250000D03*
X119380000Y-157020000D03*
X119380000Y-159790000D03*
D13*
X119380000Y-162560000D03*
D11*
X120800000Y-107690000D03*
X120800000Y-132690000D03*
D12*
X122220000Y-116035000D03*
X122220000Y-118805000D03*
X122220000Y-121575000D03*
X122220000Y-124345000D03*
X119380000Y-114650000D03*
X119380000Y-117420000D03*
X119380000Y-120190000D03*
X119380000Y-122960000D03*
D13*
X119380000Y-125730000D03*
D16*
X101600000Y-152400000D03*
X86360000Y-144780000D03*
D17*
X86360000Y-134620000D03*
D16*
X101600000Y-134620000D03*
X101600000Y-167640000D03*
X101600000Y-139700000D03*
X86360000Y-147320000D03*
X101600000Y-142240000D03*
X101600000Y-147320000D03*
X101600000Y-172720000D03*
X101600000Y-144780000D03*
X86360000Y-137160000D03*
X86360000Y-142240000D03*
X86360000Y-139700000D03*
X86360000Y-149860000D03*
X86360000Y-152400000D03*
X86360000Y-154940000D03*
X86360000Y-157480000D03*
X86360000Y-160020000D03*
X86360000Y-162560000D03*
X86360000Y-165100000D03*
X86360000Y-167640000D03*
X86360000Y-170180000D03*
X101600000Y-170180000D03*
X101600000Y-175260000D03*
X86360000Y-175260000D03*
X86360000Y-172720000D03*
X101600000Y-149860000D03*
X101600000Y-165100000D03*
X101600000Y-162560000D03*
X101600000Y-160020000D03*
X101600000Y-157480000D03*
X101600000Y-154940000D03*
X101600000Y-137160000D03*
D15*
X97790000Y-57150000D03*
D14*
X90170000Y-39370000D03*
X97790000Y-54610000D03*
X90170000Y-41910000D03*
X97790000Y-52070000D03*
X90170000Y-44450000D03*
X97790000Y-49530000D03*
X90170000Y-46990000D03*
X97790000Y-46990000D03*
X90170000Y-49530000D03*
X97790000Y-44450000D03*
X90170000Y-52070000D03*
X97790000Y-41910000D03*
X90170000Y-54610000D03*
X97790000Y-39370000D03*
X90170000Y-57150000D03*
D13*
X119380000Y-88900000D03*
D12*
X119380000Y-86130000D03*
X119380000Y-83360000D03*
X119380000Y-80590000D03*
X119380000Y-77820000D03*
X122220000Y-87515000D03*
X122220000Y-84745000D03*
X122220000Y-81975000D03*
X122220000Y-79205000D03*
D11*
X120800000Y-95860000D03*
X120800000Y-70860000D03*
D18*
X105410000Y-45720000D03*
X105410000Y-81280000D03*
X81280000Y-46990000D03*
X81280000Y-165100000D03*
X76200000Y-41910000D03*
X76200000Y-162560000D03*
X78740000Y-44450000D03*
X78740000Y-160020000D03*
X73660000Y-39370000D03*
X73660000Y-167640000D03*
X92710000Y-119380000D03*
X105410000Y-156210000D03*
X82550000Y-100330000D03*
X82550000Y-170180000D03*
X80010000Y-97790000D03*
X77470000Y-95250000D03*
X74930000Y-92710000D03*
X76200000Y-172720000D03*
X106680000Y-48260000D03*
X107950000Y-85090000D03*
X95250000Y-121920000D03*
X106680000Y-158750000D03*
D19*
X104140000Y-36830000D02*
X105410000Y-38100000D01*
X93980000Y-52070000D02*
X95250000Y-50800000D01*
X95250000Y-38100000D02*
X96520000Y-36830000D01*
X105410000Y-38100000D02*
X105410000Y-45720000D01*
X90170000Y-52070000D02*
X93980000Y-52070000D01*
X95250000Y-50800000D02*
X95250000Y-38100000D01*
X96520000Y-36830000D02*
X104140000Y-36830000D01*
X99752000Y-41910000D02*
X97790000Y-41910000D01*
X100330000Y-42488000D02*
X99752000Y-41910000D01*
X100330000Y-45720000D02*
X100330000Y-42488000D01*
X100330000Y-45720000D02*
X100330000Y-46990000D01*
X100330000Y-46990000D02*
X105410000Y-52070000D01*
X105410000Y-52070000D02*
X105410000Y-81280000D01*
X81280000Y-46990000D02*
X81280000Y-165100000D01*
X76200000Y-41910000D02*
X76200000Y-162560000D01*
X78740000Y-44450000D02*
X78740000Y-160020000D01*
X90170000Y-39370000D02*
X89770000Y-39370000D01*
X73660000Y-39370000D02*
X73660000Y-167640000D01*
X101600000Y-147320000D02*
X90170000Y-135890000D01*
X90170000Y-128270000D02*
X90170000Y-123190000D01*
X90170000Y-128270000D02*
X90170000Y-110490000D01*
X90170000Y-135890000D02*
X90170000Y-128270000D01*
X88208000Y-57150000D02*
X83820000Y-61538000D01*
X90170000Y-57150000D02*
X88208000Y-57150000D01*
X83820000Y-116840000D02*
X85725000Y-118745000D01*
X83820000Y-61538000D02*
X83820000Y-116840000D01*
X90170000Y-123190000D02*
X85725000Y-118745000D01*
X85725000Y-118745000D02*
X85090000Y-118110000D01*
X92710000Y-105988000D02*
X92710000Y-110501364D01*
X92132000Y-105410000D02*
X92710000Y-105988000D01*
X92710000Y-110501364D02*
X92710000Y-111760000D01*
X90170000Y-105410000D02*
X92132000Y-105410000D01*
X92710000Y-111760000D02*
X92710000Y-119380000D01*
X97790000Y-95250000D02*
X104140000Y-95250000D01*
X104140000Y-95250000D02*
X105410000Y-96520000D01*
X105410000Y-96520000D02*
X105410000Y-101600000D01*
X105410000Y-101600000D02*
X105410000Y-151130000D01*
X105410000Y-151130000D02*
X105410000Y-156210000D01*
X82550000Y-100330000D02*
X82550000Y-170180000D01*
X80010000Y-97790000D02*
X80010000Y-172720000D01*
X82550000Y-175260000D02*
X86360000Y-175260000D01*
X80010000Y-172720000D02*
X82550000Y-175260000D01*
X93980000Y-180340000D02*
X99060000Y-175260000D01*
X85090000Y-180340000D02*
X93980000Y-180340000D01*
X77470000Y-95250000D02*
X77470000Y-172720000D01*
X99060000Y-175260000D02*
X101600000Y-175260000D01*
X77470000Y-172720000D02*
X85090000Y-180340000D01*
X74930000Y-92710000D02*
X74930000Y-171450000D01*
X74930000Y-171450000D02*
X76200000Y-172720000D01*
X106680000Y-37753540D02*
X106680000Y-48260000D01*
X92710000Y-49530000D02*
X93980000Y-48260000D01*
X104486460Y-35560000D02*
X106680000Y-37753540D01*
X90170000Y-49530000D02*
X92710000Y-49530000D01*
X96173540Y-35560000D02*
X104486460Y-35560000D01*
X93980000Y-48260000D02*
X93980000Y-37753540D01*
X93980000Y-37753540D02*
X96173540Y-35560000D01*
X100330000Y-39370000D02*
X102870000Y-41910000D01*
X97790000Y-39370000D02*
X100330000Y-39370000D01*
X102870000Y-41910000D02*
X102870000Y-46355000D01*
X102870000Y-46355000D02*
X102870000Y-46990000D01*
X102870000Y-46990000D02*
X106680000Y-50800000D01*
X106680000Y-50800000D02*
X106680000Y-83820000D01*
X106680000Y-83820000D02*
X107950000Y-85090000D01*
X92710000Y-102870000D02*
X93980000Y-102870000D01*
X95250000Y-104140000D02*
X95250000Y-111321602D01*
X93980000Y-102870000D02*
X95250000Y-104140000D01*
X90170000Y-102870000D02*
X92710000Y-102870000D01*
X95250000Y-111321602D02*
X95250000Y-121920000D01*
X97790000Y-92710000D02*
X104140000Y-92710000D01*
X104140000Y-92710000D02*
X106680000Y-95250000D01*
X106680000Y-95250000D02*
X106680000Y-109220000D01*
X106680000Y-109220000D02*
X106680000Y-158750000D01*
M02*
