M48
; DRILL file {KiCad 5.1.5+dfsg1-2} date Tue 28 Jan 2020 02:08:24 PM CST
; FORMAT={-:-/ absolute / inch / decimal}
; #@! TF.CreationDate,2020-01-28T14:08:24-06:00
; #@! TF.GenerationSoftware,Kicad,Pcbnew,5.1.5+dfsg1-2
; #@! TF.FileFunction,Plated,1,2,PTH
FMAT,2
INCH
T1C0.0157
T2C0.0315
T3C0.0394
T4C0.0400
T5C0.1260
%
G90
G05
T1
X2.9Y-1.55
X2.9Y-6.6
X2.95Y-3.65
X3.0Y-1.65
X3.0Y-6.4
X3.0Y-6.8
X3.05Y-3.75
X3.1Y-1.75
X3.1Y-6.3
X3.15Y-3.85
X3.2Y-1.85
X3.2Y-6.5
X3.25Y-3.95
X3.25Y-6.7
X3.65Y-4.7
X3.75Y-4.8
X4.15Y-1.8
X4.15Y-3.2
X4.15Y-6.15
X4.2Y-1.9
X4.2Y-6.25
X4.25Y-3.35
T2
X3.55Y-3.65
X3.55Y-3.75
X3.55Y-3.85
X3.55Y-3.95
X3.55Y-4.05
X3.55Y-4.15
X3.55Y-4.25
X3.55Y-4.35
X3.85Y-3.65
X3.85Y-3.75
X3.85Y-3.85
X3.85Y-3.95
X3.85Y-4.05
X3.85Y-4.15
X3.85Y-4.25
X3.85Y-4.35
X3.55Y-1.55
X3.55Y-1.65
X3.55Y-1.75
X3.55Y-1.85
X3.55Y-1.95
X3.55Y-2.05
X3.55Y-2.15
X3.55Y-2.25
X3.85Y-1.55
X3.85Y-1.65
X3.85Y-1.75
X3.85Y-1.85
X3.85Y-1.95
X3.85Y-2.05
X3.85Y-2.15
X3.85Y-2.25
T3
X4.7Y-5.9638
X4.7Y-6.0728
X4.7Y-6.1819
X4.7Y-6.2909
X4.7Y-6.4
X4.8118Y-6.0183
X4.8118Y-6.1274
X4.8118Y-6.2364
X4.8118Y-6.3455
X4.7Y-1.6138
X4.7Y-1.7228
X4.7Y-1.8319
X4.7Y-1.9409
X4.7Y-2.05
X4.8118Y-1.6683
X4.8118Y-1.7774
X4.8118Y-1.8864
X4.8118Y-1.9955
X4.7Y-4.5138
X4.7Y-4.6228
X4.7Y-4.7319
X4.7Y-4.8409
X4.7Y-4.95
X4.8118Y-4.5683
X4.8118Y-4.6774
X4.8118Y-4.7864
X4.8118Y-4.8955
X4.7Y-3.0638
X4.7Y-3.1728
X4.7Y-3.2819
X4.7Y-3.3909
X4.7Y-3.5
X4.8118Y-3.1183
X4.8118Y-3.2274
X4.8118Y-3.3364
X4.8118Y-3.4455
T4
X3.4Y-5.3
X3.4Y-5.4
X3.4Y-5.5
X3.4Y-5.6
X3.4Y-5.7
X3.4Y-5.8
X3.4Y-5.9
X3.4Y-6.0
X3.4Y-6.1
X3.4Y-6.2
X3.4Y-6.3
X3.4Y-6.4
X3.4Y-6.5
X3.4Y-6.6
X3.4Y-6.7
X3.4Y-6.8
X3.4Y-6.9
X4.0Y-5.3
X4.0Y-5.4
X4.0Y-5.5
X4.0Y-5.6
X4.0Y-5.7
X4.0Y-5.8
X4.0Y-5.9
X4.0Y-6.0
X4.0Y-6.1
X4.0Y-6.2
X4.0Y-6.3
X4.0Y-6.4
X4.0Y-6.5
X4.0Y-6.6
X4.0Y-6.7
X4.0Y-6.8
X4.0Y-6.9
T5
X4.7559Y-5.6898
X4.7559Y-6.674
X4.7559Y-1.3398
X4.7559Y-2.324
X4.7559Y-4.2398
X4.7559Y-5.224
X4.7559Y-2.7898
X4.7559Y-3.774
T0
M30
