G04 #@! TF.GenerationSoftware,KiCad,Pcbnew,5.1.5+dfsg1-2*
G04 #@! TF.CreationDate,2020-01-28T14:08:21-06:00*
G04 #@! TF.ProjectId,RS232-multiport,52533233-322d-46d7-956c-7469706f7274,2.0.0*
G04 #@! TF.SameCoordinates,Original*
G04 #@! TF.FileFunction,Paste,Top*
G04 #@! TF.FilePolarity,Positive*
%FSLAX46Y46*%
G04 Gerber Fmt 4.6, Leading zero omitted, Abs format (unit mm)*
G04 Created by KiCad (PCBNEW 5.1.5+dfsg1-2) date 2020-01-28 14:08:21*
%MOMM*%
%LPD*%
G04 APERTURE LIST*
%ADD10C,0.050000*%
%ADD11C,0.100000*%
G04 APERTURE END LIST*
D10*
X76200000Y-182880000D02*
X127000000Y-182880000D01*
X71120000Y-25400000D02*
X71120000Y-177800000D01*
X76200000Y-20320000D02*
X127000000Y-20320000D01*
X71120000Y-25400000D02*
G75*
G02X76200000Y-20320000I5080000J0D01*
G01*
X76200000Y-182880000D02*
G75*
G02X71120000Y-177800000I0J5080000D01*
G01*
X132080000Y-177800000D02*
G75*
G02X127000000Y-182880000I-5080000J0D01*
G01*
X132080000Y-177800000D02*
X132080000Y-25400000D01*
X127000000Y-20320000D02*
G75*
G02X132080000Y-25400000I0J-5080000D01*
G01*
D11*
G36*
X102249504Y-91781204D02*
G01*
X102273773Y-91784804D01*
X102297571Y-91790765D01*
X102320671Y-91799030D01*
X102342849Y-91809520D01*
X102363893Y-91822133D01*
X102383598Y-91836747D01*
X102401777Y-91853223D01*
X102418253Y-91871402D01*
X102432867Y-91891107D01*
X102445480Y-91912151D01*
X102455970Y-91934329D01*
X102464235Y-91957429D01*
X102470196Y-91981227D01*
X102473796Y-92005496D01*
X102475000Y-92030000D01*
X102475000Y-92955000D01*
X102473796Y-92979504D01*
X102470196Y-93003773D01*
X102464235Y-93027571D01*
X102455970Y-93050671D01*
X102445480Y-93072849D01*
X102432867Y-93093893D01*
X102418253Y-93113598D01*
X102401777Y-93131777D01*
X102383598Y-93148253D01*
X102363893Y-93162867D01*
X102342849Y-93175480D01*
X102320671Y-93185970D01*
X102297571Y-93194235D01*
X102273773Y-93200196D01*
X102249504Y-93203796D01*
X102225000Y-93205000D01*
X100975000Y-93205000D01*
X100950496Y-93203796D01*
X100926227Y-93200196D01*
X100902429Y-93194235D01*
X100879329Y-93185970D01*
X100857151Y-93175480D01*
X100836107Y-93162867D01*
X100816402Y-93148253D01*
X100798223Y-93131777D01*
X100781747Y-93113598D01*
X100767133Y-93093893D01*
X100754520Y-93072849D01*
X100744030Y-93050671D01*
X100735765Y-93027571D01*
X100729804Y-93003773D01*
X100726204Y-92979504D01*
X100725000Y-92955000D01*
X100725000Y-92030000D01*
X100726204Y-92005496D01*
X100729804Y-91981227D01*
X100735765Y-91957429D01*
X100744030Y-91934329D01*
X100754520Y-91912151D01*
X100767133Y-91891107D01*
X100781747Y-91871402D01*
X100798223Y-91853223D01*
X100816402Y-91836747D01*
X100836107Y-91822133D01*
X100857151Y-91809520D01*
X100879329Y-91799030D01*
X100902429Y-91790765D01*
X100926227Y-91784804D01*
X100950496Y-91781204D01*
X100975000Y-91780000D01*
X102225000Y-91780000D01*
X102249504Y-91781204D01*
G37*
G36*
X102249504Y-94756204D02*
G01*
X102273773Y-94759804D01*
X102297571Y-94765765D01*
X102320671Y-94774030D01*
X102342849Y-94784520D01*
X102363893Y-94797133D01*
X102383598Y-94811747D01*
X102401777Y-94828223D01*
X102418253Y-94846402D01*
X102432867Y-94866107D01*
X102445480Y-94887151D01*
X102455970Y-94909329D01*
X102464235Y-94932429D01*
X102470196Y-94956227D01*
X102473796Y-94980496D01*
X102475000Y-95005000D01*
X102475000Y-95930000D01*
X102473796Y-95954504D01*
X102470196Y-95978773D01*
X102464235Y-96002571D01*
X102455970Y-96025671D01*
X102445480Y-96047849D01*
X102432867Y-96068893D01*
X102418253Y-96088598D01*
X102401777Y-96106777D01*
X102383598Y-96123253D01*
X102363893Y-96137867D01*
X102342849Y-96150480D01*
X102320671Y-96160970D01*
X102297571Y-96169235D01*
X102273773Y-96175196D01*
X102249504Y-96178796D01*
X102225000Y-96180000D01*
X100975000Y-96180000D01*
X100950496Y-96178796D01*
X100926227Y-96175196D01*
X100902429Y-96169235D01*
X100879329Y-96160970D01*
X100857151Y-96150480D01*
X100836107Y-96137867D01*
X100816402Y-96123253D01*
X100798223Y-96106777D01*
X100781747Y-96088598D01*
X100767133Y-96068893D01*
X100754520Y-96047849D01*
X100744030Y-96025671D01*
X100735765Y-96002571D01*
X100729804Y-95978773D01*
X100726204Y-95954504D01*
X100725000Y-95930000D01*
X100725000Y-95005000D01*
X100726204Y-94980496D01*
X100729804Y-94956227D01*
X100735765Y-94932429D01*
X100744030Y-94909329D01*
X100754520Y-94887151D01*
X100767133Y-94866107D01*
X100781747Y-94846402D01*
X100798223Y-94828223D01*
X100816402Y-94811747D01*
X100836107Y-94797133D01*
X100857151Y-94784520D01*
X100879329Y-94774030D01*
X100902429Y-94765765D01*
X100926227Y-94759804D01*
X100950496Y-94756204D01*
X100975000Y-94755000D01*
X102225000Y-94755000D01*
X102249504Y-94756204D01*
G37*
G36*
X90439504Y-114696204D02*
G01*
X90463773Y-114699804D01*
X90487571Y-114705765D01*
X90510671Y-114714030D01*
X90532849Y-114724520D01*
X90553893Y-114737133D01*
X90573598Y-114751747D01*
X90591777Y-114768223D01*
X90608253Y-114786402D01*
X90622867Y-114806107D01*
X90635480Y-114827151D01*
X90645970Y-114849329D01*
X90654235Y-114872429D01*
X90660196Y-114896227D01*
X90663796Y-114920496D01*
X90665000Y-114945000D01*
X90665000Y-116195000D01*
X90663796Y-116219504D01*
X90660196Y-116243773D01*
X90654235Y-116267571D01*
X90645970Y-116290671D01*
X90635480Y-116312849D01*
X90622867Y-116333893D01*
X90608253Y-116353598D01*
X90591777Y-116371777D01*
X90573598Y-116388253D01*
X90553893Y-116402867D01*
X90532849Y-116415480D01*
X90510671Y-116425970D01*
X90487571Y-116434235D01*
X90463773Y-116440196D01*
X90439504Y-116443796D01*
X90415000Y-116445000D01*
X89490000Y-116445000D01*
X89465496Y-116443796D01*
X89441227Y-116440196D01*
X89417429Y-116434235D01*
X89394329Y-116425970D01*
X89372151Y-116415480D01*
X89351107Y-116402867D01*
X89331402Y-116388253D01*
X89313223Y-116371777D01*
X89296747Y-116353598D01*
X89282133Y-116333893D01*
X89269520Y-116312849D01*
X89259030Y-116290671D01*
X89250765Y-116267571D01*
X89244804Y-116243773D01*
X89241204Y-116219504D01*
X89240000Y-116195000D01*
X89240000Y-114945000D01*
X89241204Y-114920496D01*
X89244804Y-114896227D01*
X89250765Y-114872429D01*
X89259030Y-114849329D01*
X89269520Y-114827151D01*
X89282133Y-114806107D01*
X89296747Y-114786402D01*
X89313223Y-114768223D01*
X89331402Y-114751747D01*
X89351107Y-114737133D01*
X89372151Y-114724520D01*
X89394329Y-114714030D01*
X89417429Y-114705765D01*
X89441227Y-114699804D01*
X89465496Y-114696204D01*
X89490000Y-114695000D01*
X90415000Y-114695000D01*
X90439504Y-114696204D01*
G37*
G36*
X93414504Y-114696204D02*
G01*
X93438773Y-114699804D01*
X93462571Y-114705765D01*
X93485671Y-114714030D01*
X93507849Y-114724520D01*
X93528893Y-114737133D01*
X93548598Y-114751747D01*
X93566777Y-114768223D01*
X93583253Y-114786402D01*
X93597867Y-114806107D01*
X93610480Y-114827151D01*
X93620970Y-114849329D01*
X93629235Y-114872429D01*
X93635196Y-114896227D01*
X93638796Y-114920496D01*
X93640000Y-114945000D01*
X93640000Y-116195000D01*
X93638796Y-116219504D01*
X93635196Y-116243773D01*
X93629235Y-116267571D01*
X93620970Y-116290671D01*
X93610480Y-116312849D01*
X93597867Y-116333893D01*
X93583253Y-116353598D01*
X93566777Y-116371777D01*
X93548598Y-116388253D01*
X93528893Y-116402867D01*
X93507849Y-116415480D01*
X93485671Y-116425970D01*
X93462571Y-116434235D01*
X93438773Y-116440196D01*
X93414504Y-116443796D01*
X93390000Y-116445000D01*
X92465000Y-116445000D01*
X92440496Y-116443796D01*
X92416227Y-116440196D01*
X92392429Y-116434235D01*
X92369329Y-116425970D01*
X92347151Y-116415480D01*
X92326107Y-116402867D01*
X92306402Y-116388253D01*
X92288223Y-116371777D01*
X92271747Y-116353598D01*
X92257133Y-116333893D01*
X92244520Y-116312849D01*
X92234030Y-116290671D01*
X92225765Y-116267571D01*
X92219804Y-116243773D01*
X92216204Y-116219504D01*
X92215000Y-116195000D01*
X92215000Y-114945000D01*
X92216204Y-114920496D01*
X92219804Y-114896227D01*
X92225765Y-114872429D01*
X92234030Y-114849329D01*
X92244520Y-114827151D01*
X92257133Y-114806107D01*
X92271747Y-114786402D01*
X92288223Y-114768223D01*
X92306402Y-114751747D01*
X92326107Y-114737133D01*
X92347151Y-114724520D01*
X92369329Y-114714030D01*
X92392429Y-114705765D01*
X92416227Y-114699804D01*
X92440496Y-114696204D01*
X92465000Y-114695000D01*
X93390000Y-114695000D01*
X93414504Y-114696204D01*
G37*
G36*
X102249504Y-38441204D02*
G01*
X102273773Y-38444804D01*
X102297571Y-38450765D01*
X102320671Y-38459030D01*
X102342849Y-38469520D01*
X102363893Y-38482133D01*
X102383598Y-38496747D01*
X102401777Y-38513223D01*
X102418253Y-38531402D01*
X102432867Y-38551107D01*
X102445480Y-38572151D01*
X102455970Y-38594329D01*
X102464235Y-38617429D01*
X102470196Y-38641227D01*
X102473796Y-38665496D01*
X102475000Y-38690000D01*
X102475000Y-39615000D01*
X102473796Y-39639504D01*
X102470196Y-39663773D01*
X102464235Y-39687571D01*
X102455970Y-39710671D01*
X102445480Y-39732849D01*
X102432867Y-39753893D01*
X102418253Y-39773598D01*
X102401777Y-39791777D01*
X102383598Y-39808253D01*
X102363893Y-39822867D01*
X102342849Y-39835480D01*
X102320671Y-39845970D01*
X102297571Y-39854235D01*
X102273773Y-39860196D01*
X102249504Y-39863796D01*
X102225000Y-39865000D01*
X100975000Y-39865000D01*
X100950496Y-39863796D01*
X100926227Y-39860196D01*
X100902429Y-39854235D01*
X100879329Y-39845970D01*
X100857151Y-39835480D01*
X100836107Y-39822867D01*
X100816402Y-39808253D01*
X100798223Y-39791777D01*
X100781747Y-39773598D01*
X100767133Y-39753893D01*
X100754520Y-39732849D01*
X100744030Y-39710671D01*
X100735765Y-39687571D01*
X100729804Y-39663773D01*
X100726204Y-39639504D01*
X100725000Y-39615000D01*
X100725000Y-38690000D01*
X100726204Y-38665496D01*
X100729804Y-38641227D01*
X100735765Y-38617429D01*
X100744030Y-38594329D01*
X100754520Y-38572151D01*
X100767133Y-38551107D01*
X100781747Y-38531402D01*
X100798223Y-38513223D01*
X100816402Y-38496747D01*
X100836107Y-38482133D01*
X100857151Y-38469520D01*
X100879329Y-38459030D01*
X100902429Y-38450765D01*
X100926227Y-38444804D01*
X100950496Y-38441204D01*
X100975000Y-38440000D01*
X102225000Y-38440000D01*
X102249504Y-38441204D01*
G37*
G36*
X102249504Y-41416204D02*
G01*
X102273773Y-41419804D01*
X102297571Y-41425765D01*
X102320671Y-41434030D01*
X102342849Y-41444520D01*
X102363893Y-41457133D01*
X102383598Y-41471747D01*
X102401777Y-41488223D01*
X102418253Y-41506402D01*
X102432867Y-41526107D01*
X102445480Y-41547151D01*
X102455970Y-41569329D01*
X102464235Y-41592429D01*
X102470196Y-41616227D01*
X102473796Y-41640496D01*
X102475000Y-41665000D01*
X102475000Y-42590000D01*
X102473796Y-42614504D01*
X102470196Y-42638773D01*
X102464235Y-42662571D01*
X102455970Y-42685671D01*
X102445480Y-42707849D01*
X102432867Y-42728893D01*
X102418253Y-42748598D01*
X102401777Y-42766777D01*
X102383598Y-42783253D01*
X102363893Y-42797867D01*
X102342849Y-42810480D01*
X102320671Y-42820970D01*
X102297571Y-42829235D01*
X102273773Y-42835196D01*
X102249504Y-42838796D01*
X102225000Y-42840000D01*
X100975000Y-42840000D01*
X100950496Y-42838796D01*
X100926227Y-42835196D01*
X100902429Y-42829235D01*
X100879329Y-42820970D01*
X100857151Y-42810480D01*
X100836107Y-42797867D01*
X100816402Y-42783253D01*
X100798223Y-42766777D01*
X100781747Y-42748598D01*
X100767133Y-42728893D01*
X100754520Y-42707849D01*
X100744030Y-42685671D01*
X100735765Y-42662571D01*
X100729804Y-42638773D01*
X100726204Y-42614504D01*
X100725000Y-42590000D01*
X100725000Y-41665000D01*
X100726204Y-41640496D01*
X100729804Y-41616227D01*
X100735765Y-41592429D01*
X100744030Y-41569329D01*
X100754520Y-41547151D01*
X100767133Y-41526107D01*
X100781747Y-41506402D01*
X100798223Y-41488223D01*
X100816402Y-41471747D01*
X100836107Y-41457133D01*
X100857151Y-41444520D01*
X100879329Y-41434030D01*
X100902429Y-41425765D01*
X100926227Y-41419804D01*
X100950496Y-41416204D01*
X100975000Y-41415000D01*
X102225000Y-41415000D01*
X102249504Y-41416204D01*
G37*
G36*
X90439504Y-61356204D02*
G01*
X90463773Y-61359804D01*
X90487571Y-61365765D01*
X90510671Y-61374030D01*
X90532849Y-61384520D01*
X90553893Y-61397133D01*
X90573598Y-61411747D01*
X90591777Y-61428223D01*
X90608253Y-61446402D01*
X90622867Y-61466107D01*
X90635480Y-61487151D01*
X90645970Y-61509329D01*
X90654235Y-61532429D01*
X90660196Y-61556227D01*
X90663796Y-61580496D01*
X90665000Y-61605000D01*
X90665000Y-62855000D01*
X90663796Y-62879504D01*
X90660196Y-62903773D01*
X90654235Y-62927571D01*
X90645970Y-62950671D01*
X90635480Y-62972849D01*
X90622867Y-62993893D01*
X90608253Y-63013598D01*
X90591777Y-63031777D01*
X90573598Y-63048253D01*
X90553893Y-63062867D01*
X90532849Y-63075480D01*
X90510671Y-63085970D01*
X90487571Y-63094235D01*
X90463773Y-63100196D01*
X90439504Y-63103796D01*
X90415000Y-63105000D01*
X89490000Y-63105000D01*
X89465496Y-63103796D01*
X89441227Y-63100196D01*
X89417429Y-63094235D01*
X89394329Y-63085970D01*
X89372151Y-63075480D01*
X89351107Y-63062867D01*
X89331402Y-63048253D01*
X89313223Y-63031777D01*
X89296747Y-63013598D01*
X89282133Y-62993893D01*
X89269520Y-62972849D01*
X89259030Y-62950671D01*
X89250765Y-62927571D01*
X89244804Y-62903773D01*
X89241204Y-62879504D01*
X89240000Y-62855000D01*
X89240000Y-61605000D01*
X89241204Y-61580496D01*
X89244804Y-61556227D01*
X89250765Y-61532429D01*
X89259030Y-61509329D01*
X89269520Y-61487151D01*
X89282133Y-61466107D01*
X89296747Y-61446402D01*
X89313223Y-61428223D01*
X89331402Y-61411747D01*
X89351107Y-61397133D01*
X89372151Y-61384520D01*
X89394329Y-61374030D01*
X89417429Y-61365765D01*
X89441227Y-61359804D01*
X89465496Y-61356204D01*
X89490000Y-61355000D01*
X90415000Y-61355000D01*
X90439504Y-61356204D01*
G37*
G36*
X93414504Y-61356204D02*
G01*
X93438773Y-61359804D01*
X93462571Y-61365765D01*
X93485671Y-61374030D01*
X93507849Y-61384520D01*
X93528893Y-61397133D01*
X93548598Y-61411747D01*
X93566777Y-61428223D01*
X93583253Y-61446402D01*
X93597867Y-61466107D01*
X93610480Y-61487151D01*
X93620970Y-61509329D01*
X93629235Y-61532429D01*
X93635196Y-61556227D01*
X93638796Y-61580496D01*
X93640000Y-61605000D01*
X93640000Y-62855000D01*
X93638796Y-62879504D01*
X93635196Y-62903773D01*
X93629235Y-62927571D01*
X93620970Y-62950671D01*
X93610480Y-62972849D01*
X93597867Y-62993893D01*
X93583253Y-63013598D01*
X93566777Y-63031777D01*
X93548598Y-63048253D01*
X93528893Y-63062867D01*
X93507849Y-63075480D01*
X93485671Y-63085970D01*
X93462571Y-63094235D01*
X93438773Y-63100196D01*
X93414504Y-63103796D01*
X93390000Y-63105000D01*
X92465000Y-63105000D01*
X92440496Y-63103796D01*
X92416227Y-63100196D01*
X92392429Y-63094235D01*
X92369329Y-63085970D01*
X92347151Y-63075480D01*
X92326107Y-63062867D01*
X92306402Y-63048253D01*
X92288223Y-63031777D01*
X92271747Y-63013598D01*
X92257133Y-62993893D01*
X92244520Y-62972849D01*
X92234030Y-62950671D01*
X92225765Y-62927571D01*
X92219804Y-62903773D01*
X92216204Y-62879504D01*
X92215000Y-62855000D01*
X92215000Y-61605000D01*
X92216204Y-61580496D01*
X92219804Y-61556227D01*
X92225765Y-61532429D01*
X92234030Y-61509329D01*
X92244520Y-61487151D01*
X92257133Y-61466107D01*
X92271747Y-61446402D01*
X92288223Y-61428223D01*
X92306402Y-61411747D01*
X92326107Y-61397133D01*
X92347151Y-61384520D01*
X92369329Y-61374030D01*
X92392429Y-61365765D01*
X92416227Y-61359804D01*
X92440496Y-61356204D01*
X92465000Y-61355000D01*
X93390000Y-61355000D01*
X93414504Y-61356204D01*
G37*
G36*
X102249504Y-99401204D02*
G01*
X102273773Y-99404804D01*
X102297571Y-99410765D01*
X102320671Y-99419030D01*
X102342849Y-99429520D01*
X102363893Y-99442133D01*
X102383598Y-99456747D01*
X102401777Y-99473223D01*
X102418253Y-99491402D01*
X102432867Y-99511107D01*
X102445480Y-99532151D01*
X102455970Y-99554329D01*
X102464235Y-99577429D01*
X102470196Y-99601227D01*
X102473796Y-99625496D01*
X102475000Y-99650000D01*
X102475000Y-100575000D01*
X102473796Y-100599504D01*
X102470196Y-100623773D01*
X102464235Y-100647571D01*
X102455970Y-100670671D01*
X102445480Y-100692849D01*
X102432867Y-100713893D01*
X102418253Y-100733598D01*
X102401777Y-100751777D01*
X102383598Y-100768253D01*
X102363893Y-100782867D01*
X102342849Y-100795480D01*
X102320671Y-100805970D01*
X102297571Y-100814235D01*
X102273773Y-100820196D01*
X102249504Y-100823796D01*
X102225000Y-100825000D01*
X100975000Y-100825000D01*
X100950496Y-100823796D01*
X100926227Y-100820196D01*
X100902429Y-100814235D01*
X100879329Y-100805970D01*
X100857151Y-100795480D01*
X100836107Y-100782867D01*
X100816402Y-100768253D01*
X100798223Y-100751777D01*
X100781747Y-100733598D01*
X100767133Y-100713893D01*
X100754520Y-100692849D01*
X100744030Y-100670671D01*
X100735765Y-100647571D01*
X100729804Y-100623773D01*
X100726204Y-100599504D01*
X100725000Y-100575000D01*
X100725000Y-99650000D01*
X100726204Y-99625496D01*
X100729804Y-99601227D01*
X100735765Y-99577429D01*
X100744030Y-99554329D01*
X100754520Y-99532151D01*
X100767133Y-99511107D01*
X100781747Y-99491402D01*
X100798223Y-99473223D01*
X100816402Y-99456747D01*
X100836107Y-99442133D01*
X100857151Y-99429520D01*
X100879329Y-99419030D01*
X100902429Y-99410765D01*
X100926227Y-99404804D01*
X100950496Y-99401204D01*
X100975000Y-99400000D01*
X102225000Y-99400000D01*
X102249504Y-99401204D01*
G37*
G36*
X102249504Y-102376204D02*
G01*
X102273773Y-102379804D01*
X102297571Y-102385765D01*
X102320671Y-102394030D01*
X102342849Y-102404520D01*
X102363893Y-102417133D01*
X102383598Y-102431747D01*
X102401777Y-102448223D01*
X102418253Y-102466402D01*
X102432867Y-102486107D01*
X102445480Y-102507151D01*
X102455970Y-102529329D01*
X102464235Y-102552429D01*
X102470196Y-102576227D01*
X102473796Y-102600496D01*
X102475000Y-102625000D01*
X102475000Y-103550000D01*
X102473796Y-103574504D01*
X102470196Y-103598773D01*
X102464235Y-103622571D01*
X102455970Y-103645671D01*
X102445480Y-103667849D01*
X102432867Y-103688893D01*
X102418253Y-103708598D01*
X102401777Y-103726777D01*
X102383598Y-103743253D01*
X102363893Y-103757867D01*
X102342849Y-103770480D01*
X102320671Y-103780970D01*
X102297571Y-103789235D01*
X102273773Y-103795196D01*
X102249504Y-103798796D01*
X102225000Y-103800000D01*
X100975000Y-103800000D01*
X100950496Y-103798796D01*
X100926227Y-103795196D01*
X100902429Y-103789235D01*
X100879329Y-103780970D01*
X100857151Y-103770480D01*
X100836107Y-103757867D01*
X100816402Y-103743253D01*
X100798223Y-103726777D01*
X100781747Y-103708598D01*
X100767133Y-103688893D01*
X100754520Y-103667849D01*
X100744030Y-103645671D01*
X100735765Y-103622571D01*
X100729804Y-103598773D01*
X100726204Y-103574504D01*
X100725000Y-103550000D01*
X100725000Y-102625000D01*
X100726204Y-102600496D01*
X100729804Y-102576227D01*
X100735765Y-102552429D01*
X100744030Y-102529329D01*
X100754520Y-102507151D01*
X100767133Y-102486107D01*
X100781747Y-102466402D01*
X100798223Y-102448223D01*
X100816402Y-102431747D01*
X100836107Y-102417133D01*
X100857151Y-102404520D01*
X100879329Y-102394030D01*
X100902429Y-102385765D01*
X100926227Y-102379804D01*
X100950496Y-102376204D01*
X100975000Y-102375000D01*
X102225000Y-102375000D01*
X102249504Y-102376204D01*
G37*
G36*
X102249504Y-46061204D02*
G01*
X102273773Y-46064804D01*
X102297571Y-46070765D01*
X102320671Y-46079030D01*
X102342849Y-46089520D01*
X102363893Y-46102133D01*
X102383598Y-46116747D01*
X102401777Y-46133223D01*
X102418253Y-46151402D01*
X102432867Y-46171107D01*
X102445480Y-46192151D01*
X102455970Y-46214329D01*
X102464235Y-46237429D01*
X102470196Y-46261227D01*
X102473796Y-46285496D01*
X102475000Y-46310000D01*
X102475000Y-47235000D01*
X102473796Y-47259504D01*
X102470196Y-47283773D01*
X102464235Y-47307571D01*
X102455970Y-47330671D01*
X102445480Y-47352849D01*
X102432867Y-47373893D01*
X102418253Y-47393598D01*
X102401777Y-47411777D01*
X102383598Y-47428253D01*
X102363893Y-47442867D01*
X102342849Y-47455480D01*
X102320671Y-47465970D01*
X102297571Y-47474235D01*
X102273773Y-47480196D01*
X102249504Y-47483796D01*
X102225000Y-47485000D01*
X100975000Y-47485000D01*
X100950496Y-47483796D01*
X100926227Y-47480196D01*
X100902429Y-47474235D01*
X100879329Y-47465970D01*
X100857151Y-47455480D01*
X100836107Y-47442867D01*
X100816402Y-47428253D01*
X100798223Y-47411777D01*
X100781747Y-47393598D01*
X100767133Y-47373893D01*
X100754520Y-47352849D01*
X100744030Y-47330671D01*
X100735765Y-47307571D01*
X100729804Y-47283773D01*
X100726204Y-47259504D01*
X100725000Y-47235000D01*
X100725000Y-46310000D01*
X100726204Y-46285496D01*
X100729804Y-46261227D01*
X100735765Y-46237429D01*
X100744030Y-46214329D01*
X100754520Y-46192151D01*
X100767133Y-46171107D01*
X100781747Y-46151402D01*
X100798223Y-46133223D01*
X100816402Y-46116747D01*
X100836107Y-46102133D01*
X100857151Y-46089520D01*
X100879329Y-46079030D01*
X100902429Y-46070765D01*
X100926227Y-46064804D01*
X100950496Y-46061204D01*
X100975000Y-46060000D01*
X102225000Y-46060000D01*
X102249504Y-46061204D01*
G37*
G36*
X102249504Y-49036204D02*
G01*
X102273773Y-49039804D01*
X102297571Y-49045765D01*
X102320671Y-49054030D01*
X102342849Y-49064520D01*
X102363893Y-49077133D01*
X102383598Y-49091747D01*
X102401777Y-49108223D01*
X102418253Y-49126402D01*
X102432867Y-49146107D01*
X102445480Y-49167151D01*
X102455970Y-49189329D01*
X102464235Y-49212429D01*
X102470196Y-49236227D01*
X102473796Y-49260496D01*
X102475000Y-49285000D01*
X102475000Y-50210000D01*
X102473796Y-50234504D01*
X102470196Y-50258773D01*
X102464235Y-50282571D01*
X102455970Y-50305671D01*
X102445480Y-50327849D01*
X102432867Y-50348893D01*
X102418253Y-50368598D01*
X102401777Y-50386777D01*
X102383598Y-50403253D01*
X102363893Y-50417867D01*
X102342849Y-50430480D01*
X102320671Y-50440970D01*
X102297571Y-50449235D01*
X102273773Y-50455196D01*
X102249504Y-50458796D01*
X102225000Y-50460000D01*
X100975000Y-50460000D01*
X100950496Y-50458796D01*
X100926227Y-50455196D01*
X100902429Y-50449235D01*
X100879329Y-50440970D01*
X100857151Y-50430480D01*
X100836107Y-50417867D01*
X100816402Y-50403253D01*
X100798223Y-50386777D01*
X100781747Y-50368598D01*
X100767133Y-50348893D01*
X100754520Y-50327849D01*
X100744030Y-50305671D01*
X100735765Y-50282571D01*
X100729804Y-50258773D01*
X100726204Y-50234504D01*
X100725000Y-50210000D01*
X100725000Y-49285000D01*
X100726204Y-49260496D01*
X100729804Y-49236227D01*
X100735765Y-49212429D01*
X100744030Y-49189329D01*
X100754520Y-49167151D01*
X100767133Y-49146107D01*
X100781747Y-49126402D01*
X100798223Y-49108223D01*
X100816402Y-49091747D01*
X100836107Y-49077133D01*
X100857151Y-49064520D01*
X100879329Y-49054030D01*
X100902429Y-49045765D01*
X100926227Y-49039804D01*
X100950496Y-49036204D01*
X100975000Y-49035000D01*
X102225000Y-49035000D01*
X102249504Y-49036204D01*
G37*
G36*
X87064504Y-109616204D02*
G01*
X87088773Y-109619804D01*
X87112571Y-109625765D01*
X87135671Y-109634030D01*
X87157849Y-109644520D01*
X87178893Y-109657133D01*
X87198598Y-109671747D01*
X87216777Y-109688223D01*
X87233253Y-109706402D01*
X87247867Y-109726107D01*
X87260480Y-109747151D01*
X87270970Y-109769329D01*
X87279235Y-109792429D01*
X87285196Y-109816227D01*
X87288796Y-109840496D01*
X87290000Y-109865000D01*
X87290000Y-111115000D01*
X87288796Y-111139504D01*
X87285196Y-111163773D01*
X87279235Y-111187571D01*
X87270970Y-111210671D01*
X87260480Y-111232849D01*
X87247867Y-111253893D01*
X87233253Y-111273598D01*
X87216777Y-111291777D01*
X87198598Y-111308253D01*
X87178893Y-111322867D01*
X87157849Y-111335480D01*
X87135671Y-111345970D01*
X87112571Y-111354235D01*
X87088773Y-111360196D01*
X87064504Y-111363796D01*
X87040000Y-111365000D01*
X86115000Y-111365000D01*
X86090496Y-111363796D01*
X86066227Y-111360196D01*
X86042429Y-111354235D01*
X86019329Y-111345970D01*
X85997151Y-111335480D01*
X85976107Y-111322867D01*
X85956402Y-111308253D01*
X85938223Y-111291777D01*
X85921747Y-111273598D01*
X85907133Y-111253893D01*
X85894520Y-111232849D01*
X85884030Y-111210671D01*
X85875765Y-111187571D01*
X85869804Y-111163773D01*
X85866204Y-111139504D01*
X85865000Y-111115000D01*
X85865000Y-109865000D01*
X85866204Y-109840496D01*
X85869804Y-109816227D01*
X85875765Y-109792429D01*
X85884030Y-109769329D01*
X85894520Y-109747151D01*
X85907133Y-109726107D01*
X85921747Y-109706402D01*
X85938223Y-109688223D01*
X85956402Y-109671747D01*
X85976107Y-109657133D01*
X85997151Y-109644520D01*
X86019329Y-109634030D01*
X86042429Y-109625765D01*
X86066227Y-109619804D01*
X86090496Y-109616204D01*
X86115000Y-109615000D01*
X87040000Y-109615000D01*
X87064504Y-109616204D01*
G37*
G36*
X84089504Y-109616204D02*
G01*
X84113773Y-109619804D01*
X84137571Y-109625765D01*
X84160671Y-109634030D01*
X84182849Y-109644520D01*
X84203893Y-109657133D01*
X84223598Y-109671747D01*
X84241777Y-109688223D01*
X84258253Y-109706402D01*
X84272867Y-109726107D01*
X84285480Y-109747151D01*
X84295970Y-109769329D01*
X84304235Y-109792429D01*
X84310196Y-109816227D01*
X84313796Y-109840496D01*
X84315000Y-109865000D01*
X84315000Y-111115000D01*
X84313796Y-111139504D01*
X84310196Y-111163773D01*
X84304235Y-111187571D01*
X84295970Y-111210671D01*
X84285480Y-111232849D01*
X84272867Y-111253893D01*
X84258253Y-111273598D01*
X84241777Y-111291777D01*
X84223598Y-111308253D01*
X84203893Y-111322867D01*
X84182849Y-111335480D01*
X84160671Y-111345970D01*
X84137571Y-111354235D01*
X84113773Y-111360196D01*
X84089504Y-111363796D01*
X84065000Y-111365000D01*
X83140000Y-111365000D01*
X83115496Y-111363796D01*
X83091227Y-111360196D01*
X83067429Y-111354235D01*
X83044329Y-111345970D01*
X83022151Y-111335480D01*
X83001107Y-111322867D01*
X82981402Y-111308253D01*
X82963223Y-111291777D01*
X82946747Y-111273598D01*
X82932133Y-111253893D01*
X82919520Y-111232849D01*
X82909030Y-111210671D01*
X82900765Y-111187571D01*
X82894804Y-111163773D01*
X82891204Y-111139504D01*
X82890000Y-111115000D01*
X82890000Y-109865000D01*
X82891204Y-109840496D01*
X82894804Y-109816227D01*
X82900765Y-109792429D01*
X82909030Y-109769329D01*
X82919520Y-109747151D01*
X82932133Y-109726107D01*
X82946747Y-109706402D01*
X82963223Y-109688223D01*
X82981402Y-109671747D01*
X83001107Y-109657133D01*
X83022151Y-109644520D01*
X83044329Y-109634030D01*
X83067429Y-109625765D01*
X83091227Y-109619804D01*
X83115496Y-109616204D01*
X83140000Y-109615000D01*
X84065000Y-109615000D01*
X84089504Y-109616204D01*
G37*
G36*
X87064504Y-56276204D02*
G01*
X87088773Y-56279804D01*
X87112571Y-56285765D01*
X87135671Y-56294030D01*
X87157849Y-56304520D01*
X87178893Y-56317133D01*
X87198598Y-56331747D01*
X87216777Y-56348223D01*
X87233253Y-56366402D01*
X87247867Y-56386107D01*
X87260480Y-56407151D01*
X87270970Y-56429329D01*
X87279235Y-56452429D01*
X87285196Y-56476227D01*
X87288796Y-56500496D01*
X87290000Y-56525000D01*
X87290000Y-57775000D01*
X87288796Y-57799504D01*
X87285196Y-57823773D01*
X87279235Y-57847571D01*
X87270970Y-57870671D01*
X87260480Y-57892849D01*
X87247867Y-57913893D01*
X87233253Y-57933598D01*
X87216777Y-57951777D01*
X87198598Y-57968253D01*
X87178893Y-57982867D01*
X87157849Y-57995480D01*
X87135671Y-58005970D01*
X87112571Y-58014235D01*
X87088773Y-58020196D01*
X87064504Y-58023796D01*
X87040000Y-58025000D01*
X86115000Y-58025000D01*
X86090496Y-58023796D01*
X86066227Y-58020196D01*
X86042429Y-58014235D01*
X86019329Y-58005970D01*
X85997151Y-57995480D01*
X85976107Y-57982867D01*
X85956402Y-57968253D01*
X85938223Y-57951777D01*
X85921747Y-57933598D01*
X85907133Y-57913893D01*
X85894520Y-57892849D01*
X85884030Y-57870671D01*
X85875765Y-57847571D01*
X85869804Y-57823773D01*
X85866204Y-57799504D01*
X85865000Y-57775000D01*
X85865000Y-56525000D01*
X85866204Y-56500496D01*
X85869804Y-56476227D01*
X85875765Y-56452429D01*
X85884030Y-56429329D01*
X85894520Y-56407151D01*
X85907133Y-56386107D01*
X85921747Y-56366402D01*
X85938223Y-56348223D01*
X85956402Y-56331747D01*
X85976107Y-56317133D01*
X85997151Y-56304520D01*
X86019329Y-56294030D01*
X86042429Y-56285765D01*
X86066227Y-56279804D01*
X86090496Y-56276204D01*
X86115000Y-56275000D01*
X87040000Y-56275000D01*
X87064504Y-56276204D01*
G37*
G36*
X84089504Y-56276204D02*
G01*
X84113773Y-56279804D01*
X84137571Y-56285765D01*
X84160671Y-56294030D01*
X84182849Y-56304520D01*
X84203893Y-56317133D01*
X84223598Y-56331747D01*
X84241777Y-56348223D01*
X84258253Y-56366402D01*
X84272867Y-56386107D01*
X84285480Y-56407151D01*
X84295970Y-56429329D01*
X84304235Y-56452429D01*
X84310196Y-56476227D01*
X84313796Y-56500496D01*
X84315000Y-56525000D01*
X84315000Y-57775000D01*
X84313796Y-57799504D01*
X84310196Y-57823773D01*
X84304235Y-57847571D01*
X84295970Y-57870671D01*
X84285480Y-57892849D01*
X84272867Y-57913893D01*
X84258253Y-57933598D01*
X84241777Y-57951777D01*
X84223598Y-57968253D01*
X84203893Y-57982867D01*
X84182849Y-57995480D01*
X84160671Y-58005970D01*
X84137571Y-58014235D01*
X84113773Y-58020196D01*
X84089504Y-58023796D01*
X84065000Y-58025000D01*
X83140000Y-58025000D01*
X83115496Y-58023796D01*
X83091227Y-58020196D01*
X83067429Y-58014235D01*
X83044329Y-58005970D01*
X83022151Y-57995480D01*
X83001107Y-57982867D01*
X82981402Y-57968253D01*
X82963223Y-57951777D01*
X82946747Y-57933598D01*
X82932133Y-57913893D01*
X82919520Y-57892849D01*
X82909030Y-57870671D01*
X82900765Y-57847571D01*
X82894804Y-57823773D01*
X82891204Y-57799504D01*
X82890000Y-57775000D01*
X82890000Y-56525000D01*
X82891204Y-56500496D01*
X82894804Y-56476227D01*
X82900765Y-56452429D01*
X82909030Y-56429329D01*
X82919520Y-56407151D01*
X82932133Y-56386107D01*
X82946747Y-56366402D01*
X82963223Y-56348223D01*
X82981402Y-56331747D01*
X83001107Y-56317133D01*
X83022151Y-56304520D01*
X83044329Y-56294030D01*
X83067429Y-56285765D01*
X83091227Y-56279804D01*
X83115496Y-56276204D01*
X83140000Y-56275000D01*
X84065000Y-56275000D01*
X84089504Y-56276204D01*
G37*
G36*
X102249504Y-109996204D02*
G01*
X102273773Y-109999804D01*
X102297571Y-110005765D01*
X102320671Y-110014030D01*
X102342849Y-110024520D01*
X102363893Y-110037133D01*
X102383598Y-110051747D01*
X102401777Y-110068223D01*
X102418253Y-110086402D01*
X102432867Y-110106107D01*
X102445480Y-110127151D01*
X102455970Y-110149329D01*
X102464235Y-110172429D01*
X102470196Y-110196227D01*
X102473796Y-110220496D01*
X102475000Y-110245000D01*
X102475000Y-111170000D01*
X102473796Y-111194504D01*
X102470196Y-111218773D01*
X102464235Y-111242571D01*
X102455970Y-111265671D01*
X102445480Y-111287849D01*
X102432867Y-111308893D01*
X102418253Y-111328598D01*
X102401777Y-111346777D01*
X102383598Y-111363253D01*
X102363893Y-111377867D01*
X102342849Y-111390480D01*
X102320671Y-111400970D01*
X102297571Y-111409235D01*
X102273773Y-111415196D01*
X102249504Y-111418796D01*
X102225000Y-111420000D01*
X100975000Y-111420000D01*
X100950496Y-111418796D01*
X100926227Y-111415196D01*
X100902429Y-111409235D01*
X100879329Y-111400970D01*
X100857151Y-111390480D01*
X100836107Y-111377867D01*
X100816402Y-111363253D01*
X100798223Y-111346777D01*
X100781747Y-111328598D01*
X100767133Y-111308893D01*
X100754520Y-111287849D01*
X100744030Y-111265671D01*
X100735765Y-111242571D01*
X100729804Y-111218773D01*
X100726204Y-111194504D01*
X100725000Y-111170000D01*
X100725000Y-110245000D01*
X100726204Y-110220496D01*
X100729804Y-110196227D01*
X100735765Y-110172429D01*
X100744030Y-110149329D01*
X100754520Y-110127151D01*
X100767133Y-110106107D01*
X100781747Y-110086402D01*
X100798223Y-110068223D01*
X100816402Y-110051747D01*
X100836107Y-110037133D01*
X100857151Y-110024520D01*
X100879329Y-110014030D01*
X100902429Y-110005765D01*
X100926227Y-109999804D01*
X100950496Y-109996204D01*
X100975000Y-109995000D01*
X102225000Y-109995000D01*
X102249504Y-109996204D01*
G37*
G36*
X102249504Y-107021204D02*
G01*
X102273773Y-107024804D01*
X102297571Y-107030765D01*
X102320671Y-107039030D01*
X102342849Y-107049520D01*
X102363893Y-107062133D01*
X102383598Y-107076747D01*
X102401777Y-107093223D01*
X102418253Y-107111402D01*
X102432867Y-107131107D01*
X102445480Y-107152151D01*
X102455970Y-107174329D01*
X102464235Y-107197429D01*
X102470196Y-107221227D01*
X102473796Y-107245496D01*
X102475000Y-107270000D01*
X102475000Y-108195000D01*
X102473796Y-108219504D01*
X102470196Y-108243773D01*
X102464235Y-108267571D01*
X102455970Y-108290671D01*
X102445480Y-108312849D01*
X102432867Y-108333893D01*
X102418253Y-108353598D01*
X102401777Y-108371777D01*
X102383598Y-108388253D01*
X102363893Y-108402867D01*
X102342849Y-108415480D01*
X102320671Y-108425970D01*
X102297571Y-108434235D01*
X102273773Y-108440196D01*
X102249504Y-108443796D01*
X102225000Y-108445000D01*
X100975000Y-108445000D01*
X100950496Y-108443796D01*
X100926227Y-108440196D01*
X100902429Y-108434235D01*
X100879329Y-108425970D01*
X100857151Y-108415480D01*
X100836107Y-108402867D01*
X100816402Y-108388253D01*
X100798223Y-108371777D01*
X100781747Y-108353598D01*
X100767133Y-108333893D01*
X100754520Y-108312849D01*
X100744030Y-108290671D01*
X100735765Y-108267571D01*
X100729804Y-108243773D01*
X100726204Y-108219504D01*
X100725000Y-108195000D01*
X100725000Y-107270000D01*
X100726204Y-107245496D01*
X100729804Y-107221227D01*
X100735765Y-107197429D01*
X100744030Y-107174329D01*
X100754520Y-107152151D01*
X100767133Y-107131107D01*
X100781747Y-107111402D01*
X100798223Y-107093223D01*
X100816402Y-107076747D01*
X100836107Y-107062133D01*
X100857151Y-107049520D01*
X100879329Y-107039030D01*
X100902429Y-107030765D01*
X100926227Y-107024804D01*
X100950496Y-107021204D01*
X100975000Y-107020000D01*
X102225000Y-107020000D01*
X102249504Y-107021204D01*
G37*
G36*
X102249504Y-56656204D02*
G01*
X102273773Y-56659804D01*
X102297571Y-56665765D01*
X102320671Y-56674030D01*
X102342849Y-56684520D01*
X102363893Y-56697133D01*
X102383598Y-56711747D01*
X102401777Y-56728223D01*
X102418253Y-56746402D01*
X102432867Y-56766107D01*
X102445480Y-56787151D01*
X102455970Y-56809329D01*
X102464235Y-56832429D01*
X102470196Y-56856227D01*
X102473796Y-56880496D01*
X102475000Y-56905000D01*
X102475000Y-57830000D01*
X102473796Y-57854504D01*
X102470196Y-57878773D01*
X102464235Y-57902571D01*
X102455970Y-57925671D01*
X102445480Y-57947849D01*
X102432867Y-57968893D01*
X102418253Y-57988598D01*
X102401777Y-58006777D01*
X102383598Y-58023253D01*
X102363893Y-58037867D01*
X102342849Y-58050480D01*
X102320671Y-58060970D01*
X102297571Y-58069235D01*
X102273773Y-58075196D01*
X102249504Y-58078796D01*
X102225000Y-58080000D01*
X100975000Y-58080000D01*
X100950496Y-58078796D01*
X100926227Y-58075196D01*
X100902429Y-58069235D01*
X100879329Y-58060970D01*
X100857151Y-58050480D01*
X100836107Y-58037867D01*
X100816402Y-58023253D01*
X100798223Y-58006777D01*
X100781747Y-57988598D01*
X100767133Y-57968893D01*
X100754520Y-57947849D01*
X100744030Y-57925671D01*
X100735765Y-57902571D01*
X100729804Y-57878773D01*
X100726204Y-57854504D01*
X100725000Y-57830000D01*
X100725000Y-56905000D01*
X100726204Y-56880496D01*
X100729804Y-56856227D01*
X100735765Y-56832429D01*
X100744030Y-56809329D01*
X100754520Y-56787151D01*
X100767133Y-56766107D01*
X100781747Y-56746402D01*
X100798223Y-56728223D01*
X100816402Y-56711747D01*
X100836107Y-56697133D01*
X100857151Y-56684520D01*
X100879329Y-56674030D01*
X100902429Y-56665765D01*
X100926227Y-56659804D01*
X100950496Y-56656204D01*
X100975000Y-56655000D01*
X102225000Y-56655000D01*
X102249504Y-56656204D01*
G37*
G36*
X102249504Y-53681204D02*
G01*
X102273773Y-53684804D01*
X102297571Y-53690765D01*
X102320671Y-53699030D01*
X102342849Y-53709520D01*
X102363893Y-53722133D01*
X102383598Y-53736747D01*
X102401777Y-53753223D01*
X102418253Y-53771402D01*
X102432867Y-53791107D01*
X102445480Y-53812151D01*
X102455970Y-53834329D01*
X102464235Y-53857429D01*
X102470196Y-53881227D01*
X102473796Y-53905496D01*
X102475000Y-53930000D01*
X102475000Y-54855000D01*
X102473796Y-54879504D01*
X102470196Y-54903773D01*
X102464235Y-54927571D01*
X102455970Y-54950671D01*
X102445480Y-54972849D01*
X102432867Y-54993893D01*
X102418253Y-55013598D01*
X102401777Y-55031777D01*
X102383598Y-55048253D01*
X102363893Y-55062867D01*
X102342849Y-55075480D01*
X102320671Y-55085970D01*
X102297571Y-55094235D01*
X102273773Y-55100196D01*
X102249504Y-55103796D01*
X102225000Y-55105000D01*
X100975000Y-55105000D01*
X100950496Y-55103796D01*
X100926227Y-55100196D01*
X100902429Y-55094235D01*
X100879329Y-55085970D01*
X100857151Y-55075480D01*
X100836107Y-55062867D01*
X100816402Y-55048253D01*
X100798223Y-55031777D01*
X100781747Y-55013598D01*
X100767133Y-54993893D01*
X100754520Y-54972849D01*
X100744030Y-54950671D01*
X100735765Y-54927571D01*
X100729804Y-54903773D01*
X100726204Y-54879504D01*
X100725000Y-54855000D01*
X100725000Y-53930000D01*
X100726204Y-53905496D01*
X100729804Y-53881227D01*
X100735765Y-53857429D01*
X100744030Y-53834329D01*
X100754520Y-53812151D01*
X100767133Y-53791107D01*
X100781747Y-53771402D01*
X100798223Y-53753223D01*
X100816402Y-53736747D01*
X100836107Y-53722133D01*
X100857151Y-53709520D01*
X100879329Y-53699030D01*
X100902429Y-53690765D01*
X100926227Y-53684804D01*
X100950496Y-53681204D01*
X100975000Y-53680000D01*
X102225000Y-53680000D01*
X102249504Y-53681204D01*
G37*
G36*
X114949504Y-164606204D02*
G01*
X114973773Y-164609804D01*
X114997571Y-164615765D01*
X115020671Y-164624030D01*
X115042849Y-164634520D01*
X115063893Y-164647133D01*
X115083598Y-164661747D01*
X115101777Y-164678223D01*
X115118253Y-164696402D01*
X115132867Y-164716107D01*
X115145480Y-164737151D01*
X115155970Y-164759329D01*
X115164235Y-164782429D01*
X115170196Y-164806227D01*
X115173796Y-164830496D01*
X115175000Y-164855000D01*
X115175000Y-165780000D01*
X115173796Y-165804504D01*
X115170196Y-165828773D01*
X115164235Y-165852571D01*
X115155970Y-165875671D01*
X115145480Y-165897849D01*
X115132867Y-165918893D01*
X115118253Y-165938598D01*
X115101777Y-165956777D01*
X115083598Y-165973253D01*
X115063893Y-165987867D01*
X115042849Y-166000480D01*
X115020671Y-166010970D01*
X114997571Y-166019235D01*
X114973773Y-166025196D01*
X114949504Y-166028796D01*
X114925000Y-166030000D01*
X113675000Y-166030000D01*
X113650496Y-166028796D01*
X113626227Y-166025196D01*
X113602429Y-166019235D01*
X113579329Y-166010970D01*
X113557151Y-166000480D01*
X113536107Y-165987867D01*
X113516402Y-165973253D01*
X113498223Y-165956777D01*
X113481747Y-165938598D01*
X113467133Y-165918893D01*
X113454520Y-165897849D01*
X113444030Y-165875671D01*
X113435765Y-165852571D01*
X113429804Y-165828773D01*
X113426204Y-165804504D01*
X113425000Y-165780000D01*
X113425000Y-164855000D01*
X113426204Y-164830496D01*
X113429804Y-164806227D01*
X113435765Y-164782429D01*
X113444030Y-164759329D01*
X113454520Y-164737151D01*
X113467133Y-164716107D01*
X113481747Y-164696402D01*
X113498223Y-164678223D01*
X113516402Y-164661747D01*
X113536107Y-164647133D01*
X113557151Y-164634520D01*
X113579329Y-164624030D01*
X113602429Y-164615765D01*
X113626227Y-164609804D01*
X113650496Y-164606204D01*
X113675000Y-164605000D01*
X114925000Y-164605000D01*
X114949504Y-164606204D01*
G37*
G36*
X114949504Y-161631204D02*
G01*
X114973773Y-161634804D01*
X114997571Y-161640765D01*
X115020671Y-161649030D01*
X115042849Y-161659520D01*
X115063893Y-161672133D01*
X115083598Y-161686747D01*
X115101777Y-161703223D01*
X115118253Y-161721402D01*
X115132867Y-161741107D01*
X115145480Y-161762151D01*
X115155970Y-161784329D01*
X115164235Y-161807429D01*
X115170196Y-161831227D01*
X115173796Y-161855496D01*
X115175000Y-161880000D01*
X115175000Y-162805000D01*
X115173796Y-162829504D01*
X115170196Y-162853773D01*
X115164235Y-162877571D01*
X115155970Y-162900671D01*
X115145480Y-162922849D01*
X115132867Y-162943893D01*
X115118253Y-162963598D01*
X115101777Y-162981777D01*
X115083598Y-162998253D01*
X115063893Y-163012867D01*
X115042849Y-163025480D01*
X115020671Y-163035970D01*
X114997571Y-163044235D01*
X114973773Y-163050196D01*
X114949504Y-163053796D01*
X114925000Y-163055000D01*
X113675000Y-163055000D01*
X113650496Y-163053796D01*
X113626227Y-163050196D01*
X113602429Y-163044235D01*
X113579329Y-163035970D01*
X113557151Y-163025480D01*
X113536107Y-163012867D01*
X113516402Y-162998253D01*
X113498223Y-162981777D01*
X113481747Y-162963598D01*
X113467133Y-162943893D01*
X113454520Y-162922849D01*
X113444030Y-162900671D01*
X113435765Y-162877571D01*
X113429804Y-162853773D01*
X113426204Y-162829504D01*
X113425000Y-162805000D01*
X113425000Y-161880000D01*
X113426204Y-161855496D01*
X113429804Y-161831227D01*
X113435765Y-161807429D01*
X113444030Y-161784329D01*
X113454520Y-161762151D01*
X113467133Y-161741107D01*
X113481747Y-161721402D01*
X113498223Y-161703223D01*
X113516402Y-161686747D01*
X113536107Y-161672133D01*
X113557151Y-161659520D01*
X113579329Y-161649030D01*
X113602429Y-161640765D01*
X113626227Y-161634804D01*
X113650496Y-161631204D01*
X113675000Y-161630000D01*
X114925000Y-161630000D01*
X114949504Y-161631204D01*
G37*
G36*
X114949504Y-147661204D02*
G01*
X114973773Y-147664804D01*
X114997571Y-147670765D01*
X115020671Y-147679030D01*
X115042849Y-147689520D01*
X115063893Y-147702133D01*
X115083598Y-147716747D01*
X115101777Y-147733223D01*
X115118253Y-147751402D01*
X115132867Y-147771107D01*
X115145480Y-147792151D01*
X115155970Y-147814329D01*
X115164235Y-147837429D01*
X115170196Y-147861227D01*
X115173796Y-147885496D01*
X115175000Y-147910000D01*
X115175000Y-148835000D01*
X115173796Y-148859504D01*
X115170196Y-148883773D01*
X115164235Y-148907571D01*
X115155970Y-148930671D01*
X115145480Y-148952849D01*
X115132867Y-148973893D01*
X115118253Y-148993598D01*
X115101777Y-149011777D01*
X115083598Y-149028253D01*
X115063893Y-149042867D01*
X115042849Y-149055480D01*
X115020671Y-149065970D01*
X114997571Y-149074235D01*
X114973773Y-149080196D01*
X114949504Y-149083796D01*
X114925000Y-149085000D01*
X113675000Y-149085000D01*
X113650496Y-149083796D01*
X113626227Y-149080196D01*
X113602429Y-149074235D01*
X113579329Y-149065970D01*
X113557151Y-149055480D01*
X113536107Y-149042867D01*
X113516402Y-149028253D01*
X113498223Y-149011777D01*
X113481747Y-148993598D01*
X113467133Y-148973893D01*
X113454520Y-148952849D01*
X113444030Y-148930671D01*
X113435765Y-148907571D01*
X113429804Y-148883773D01*
X113426204Y-148859504D01*
X113425000Y-148835000D01*
X113425000Y-147910000D01*
X113426204Y-147885496D01*
X113429804Y-147861227D01*
X113435765Y-147837429D01*
X113444030Y-147814329D01*
X113454520Y-147792151D01*
X113467133Y-147771107D01*
X113481747Y-147751402D01*
X113498223Y-147733223D01*
X113516402Y-147716747D01*
X113536107Y-147702133D01*
X113557151Y-147689520D01*
X113579329Y-147679030D01*
X113602429Y-147670765D01*
X113626227Y-147664804D01*
X113650496Y-147661204D01*
X113675000Y-147660000D01*
X114925000Y-147660000D01*
X114949504Y-147661204D01*
G37*
G36*
X114949504Y-150636204D02*
G01*
X114973773Y-150639804D01*
X114997571Y-150645765D01*
X115020671Y-150654030D01*
X115042849Y-150664520D01*
X115063893Y-150677133D01*
X115083598Y-150691747D01*
X115101777Y-150708223D01*
X115118253Y-150726402D01*
X115132867Y-150746107D01*
X115145480Y-150767151D01*
X115155970Y-150789329D01*
X115164235Y-150812429D01*
X115170196Y-150836227D01*
X115173796Y-150860496D01*
X115175000Y-150885000D01*
X115175000Y-151810000D01*
X115173796Y-151834504D01*
X115170196Y-151858773D01*
X115164235Y-151882571D01*
X115155970Y-151905671D01*
X115145480Y-151927849D01*
X115132867Y-151948893D01*
X115118253Y-151968598D01*
X115101777Y-151986777D01*
X115083598Y-152003253D01*
X115063893Y-152017867D01*
X115042849Y-152030480D01*
X115020671Y-152040970D01*
X114997571Y-152049235D01*
X114973773Y-152055196D01*
X114949504Y-152058796D01*
X114925000Y-152060000D01*
X113675000Y-152060000D01*
X113650496Y-152058796D01*
X113626227Y-152055196D01*
X113602429Y-152049235D01*
X113579329Y-152040970D01*
X113557151Y-152030480D01*
X113536107Y-152017867D01*
X113516402Y-152003253D01*
X113498223Y-151986777D01*
X113481747Y-151968598D01*
X113467133Y-151948893D01*
X113454520Y-151927849D01*
X113444030Y-151905671D01*
X113435765Y-151882571D01*
X113429804Y-151858773D01*
X113426204Y-151834504D01*
X113425000Y-151810000D01*
X113425000Y-150885000D01*
X113426204Y-150860496D01*
X113429804Y-150836227D01*
X113435765Y-150812429D01*
X113444030Y-150789329D01*
X113454520Y-150767151D01*
X113467133Y-150746107D01*
X113481747Y-150726402D01*
X113498223Y-150708223D01*
X113516402Y-150691747D01*
X113536107Y-150677133D01*
X113557151Y-150664520D01*
X113579329Y-150654030D01*
X113602429Y-150645765D01*
X113626227Y-150639804D01*
X113650496Y-150636204D01*
X113675000Y-150635000D01*
X114925000Y-150635000D01*
X114949504Y-150636204D01*
G37*
G36*
X114949504Y-127776204D02*
G01*
X114973773Y-127779804D01*
X114997571Y-127785765D01*
X115020671Y-127794030D01*
X115042849Y-127804520D01*
X115063893Y-127817133D01*
X115083598Y-127831747D01*
X115101777Y-127848223D01*
X115118253Y-127866402D01*
X115132867Y-127886107D01*
X115145480Y-127907151D01*
X115155970Y-127929329D01*
X115164235Y-127952429D01*
X115170196Y-127976227D01*
X115173796Y-128000496D01*
X115175000Y-128025000D01*
X115175000Y-128950000D01*
X115173796Y-128974504D01*
X115170196Y-128998773D01*
X115164235Y-129022571D01*
X115155970Y-129045671D01*
X115145480Y-129067849D01*
X115132867Y-129088893D01*
X115118253Y-129108598D01*
X115101777Y-129126777D01*
X115083598Y-129143253D01*
X115063893Y-129157867D01*
X115042849Y-129170480D01*
X115020671Y-129180970D01*
X114997571Y-129189235D01*
X114973773Y-129195196D01*
X114949504Y-129198796D01*
X114925000Y-129200000D01*
X113675000Y-129200000D01*
X113650496Y-129198796D01*
X113626227Y-129195196D01*
X113602429Y-129189235D01*
X113579329Y-129180970D01*
X113557151Y-129170480D01*
X113536107Y-129157867D01*
X113516402Y-129143253D01*
X113498223Y-129126777D01*
X113481747Y-129108598D01*
X113467133Y-129088893D01*
X113454520Y-129067849D01*
X113444030Y-129045671D01*
X113435765Y-129022571D01*
X113429804Y-128998773D01*
X113426204Y-128974504D01*
X113425000Y-128950000D01*
X113425000Y-128025000D01*
X113426204Y-128000496D01*
X113429804Y-127976227D01*
X113435765Y-127952429D01*
X113444030Y-127929329D01*
X113454520Y-127907151D01*
X113467133Y-127886107D01*
X113481747Y-127866402D01*
X113498223Y-127848223D01*
X113516402Y-127831747D01*
X113536107Y-127817133D01*
X113557151Y-127804520D01*
X113579329Y-127794030D01*
X113602429Y-127785765D01*
X113626227Y-127779804D01*
X113650496Y-127776204D01*
X113675000Y-127775000D01*
X114925000Y-127775000D01*
X114949504Y-127776204D01*
G37*
G36*
X114949504Y-124801204D02*
G01*
X114973773Y-124804804D01*
X114997571Y-124810765D01*
X115020671Y-124819030D01*
X115042849Y-124829520D01*
X115063893Y-124842133D01*
X115083598Y-124856747D01*
X115101777Y-124873223D01*
X115118253Y-124891402D01*
X115132867Y-124911107D01*
X115145480Y-124932151D01*
X115155970Y-124954329D01*
X115164235Y-124977429D01*
X115170196Y-125001227D01*
X115173796Y-125025496D01*
X115175000Y-125050000D01*
X115175000Y-125975000D01*
X115173796Y-125999504D01*
X115170196Y-126023773D01*
X115164235Y-126047571D01*
X115155970Y-126070671D01*
X115145480Y-126092849D01*
X115132867Y-126113893D01*
X115118253Y-126133598D01*
X115101777Y-126151777D01*
X115083598Y-126168253D01*
X115063893Y-126182867D01*
X115042849Y-126195480D01*
X115020671Y-126205970D01*
X114997571Y-126214235D01*
X114973773Y-126220196D01*
X114949504Y-126223796D01*
X114925000Y-126225000D01*
X113675000Y-126225000D01*
X113650496Y-126223796D01*
X113626227Y-126220196D01*
X113602429Y-126214235D01*
X113579329Y-126205970D01*
X113557151Y-126195480D01*
X113536107Y-126182867D01*
X113516402Y-126168253D01*
X113498223Y-126151777D01*
X113481747Y-126133598D01*
X113467133Y-126113893D01*
X113454520Y-126092849D01*
X113444030Y-126070671D01*
X113435765Y-126047571D01*
X113429804Y-126023773D01*
X113426204Y-125999504D01*
X113425000Y-125975000D01*
X113425000Y-125050000D01*
X113426204Y-125025496D01*
X113429804Y-125001227D01*
X113435765Y-124977429D01*
X113444030Y-124954329D01*
X113454520Y-124932151D01*
X113467133Y-124911107D01*
X113481747Y-124891402D01*
X113498223Y-124873223D01*
X113516402Y-124856747D01*
X113536107Y-124842133D01*
X113557151Y-124829520D01*
X113579329Y-124819030D01*
X113602429Y-124810765D01*
X113626227Y-124804804D01*
X113650496Y-124801204D01*
X113675000Y-124800000D01*
X114925000Y-124800000D01*
X114949504Y-124801204D01*
G37*
G36*
X114949504Y-110831204D02*
G01*
X114973773Y-110834804D01*
X114997571Y-110840765D01*
X115020671Y-110849030D01*
X115042849Y-110859520D01*
X115063893Y-110872133D01*
X115083598Y-110886747D01*
X115101777Y-110903223D01*
X115118253Y-110921402D01*
X115132867Y-110941107D01*
X115145480Y-110962151D01*
X115155970Y-110984329D01*
X115164235Y-111007429D01*
X115170196Y-111031227D01*
X115173796Y-111055496D01*
X115175000Y-111080000D01*
X115175000Y-112005000D01*
X115173796Y-112029504D01*
X115170196Y-112053773D01*
X115164235Y-112077571D01*
X115155970Y-112100671D01*
X115145480Y-112122849D01*
X115132867Y-112143893D01*
X115118253Y-112163598D01*
X115101777Y-112181777D01*
X115083598Y-112198253D01*
X115063893Y-112212867D01*
X115042849Y-112225480D01*
X115020671Y-112235970D01*
X114997571Y-112244235D01*
X114973773Y-112250196D01*
X114949504Y-112253796D01*
X114925000Y-112255000D01*
X113675000Y-112255000D01*
X113650496Y-112253796D01*
X113626227Y-112250196D01*
X113602429Y-112244235D01*
X113579329Y-112235970D01*
X113557151Y-112225480D01*
X113536107Y-112212867D01*
X113516402Y-112198253D01*
X113498223Y-112181777D01*
X113481747Y-112163598D01*
X113467133Y-112143893D01*
X113454520Y-112122849D01*
X113444030Y-112100671D01*
X113435765Y-112077571D01*
X113429804Y-112053773D01*
X113426204Y-112029504D01*
X113425000Y-112005000D01*
X113425000Y-111080000D01*
X113426204Y-111055496D01*
X113429804Y-111031227D01*
X113435765Y-111007429D01*
X113444030Y-110984329D01*
X113454520Y-110962151D01*
X113467133Y-110941107D01*
X113481747Y-110921402D01*
X113498223Y-110903223D01*
X113516402Y-110886747D01*
X113536107Y-110872133D01*
X113557151Y-110859520D01*
X113579329Y-110849030D01*
X113602429Y-110840765D01*
X113626227Y-110834804D01*
X113650496Y-110831204D01*
X113675000Y-110830000D01*
X114925000Y-110830000D01*
X114949504Y-110831204D01*
G37*
G36*
X114949504Y-113806204D02*
G01*
X114973773Y-113809804D01*
X114997571Y-113815765D01*
X115020671Y-113824030D01*
X115042849Y-113834520D01*
X115063893Y-113847133D01*
X115083598Y-113861747D01*
X115101777Y-113878223D01*
X115118253Y-113896402D01*
X115132867Y-113916107D01*
X115145480Y-113937151D01*
X115155970Y-113959329D01*
X115164235Y-113982429D01*
X115170196Y-114006227D01*
X115173796Y-114030496D01*
X115175000Y-114055000D01*
X115175000Y-114980000D01*
X115173796Y-115004504D01*
X115170196Y-115028773D01*
X115164235Y-115052571D01*
X115155970Y-115075671D01*
X115145480Y-115097849D01*
X115132867Y-115118893D01*
X115118253Y-115138598D01*
X115101777Y-115156777D01*
X115083598Y-115173253D01*
X115063893Y-115187867D01*
X115042849Y-115200480D01*
X115020671Y-115210970D01*
X114997571Y-115219235D01*
X114973773Y-115225196D01*
X114949504Y-115228796D01*
X114925000Y-115230000D01*
X113675000Y-115230000D01*
X113650496Y-115228796D01*
X113626227Y-115225196D01*
X113602429Y-115219235D01*
X113579329Y-115210970D01*
X113557151Y-115200480D01*
X113536107Y-115187867D01*
X113516402Y-115173253D01*
X113498223Y-115156777D01*
X113481747Y-115138598D01*
X113467133Y-115118893D01*
X113454520Y-115097849D01*
X113444030Y-115075671D01*
X113435765Y-115052571D01*
X113429804Y-115028773D01*
X113426204Y-115004504D01*
X113425000Y-114980000D01*
X113425000Y-114055000D01*
X113426204Y-114030496D01*
X113429804Y-114006227D01*
X113435765Y-113982429D01*
X113444030Y-113959329D01*
X113454520Y-113937151D01*
X113467133Y-113916107D01*
X113481747Y-113896402D01*
X113498223Y-113878223D01*
X113516402Y-113861747D01*
X113536107Y-113847133D01*
X113557151Y-113834520D01*
X113579329Y-113824030D01*
X113602429Y-113815765D01*
X113626227Y-113809804D01*
X113650496Y-113806204D01*
X113675000Y-113805000D01*
X114925000Y-113805000D01*
X114949504Y-113806204D01*
G37*
G36*
X114949504Y-90946204D02*
G01*
X114973773Y-90949804D01*
X114997571Y-90955765D01*
X115020671Y-90964030D01*
X115042849Y-90974520D01*
X115063893Y-90987133D01*
X115083598Y-91001747D01*
X115101777Y-91018223D01*
X115118253Y-91036402D01*
X115132867Y-91056107D01*
X115145480Y-91077151D01*
X115155970Y-91099329D01*
X115164235Y-91122429D01*
X115170196Y-91146227D01*
X115173796Y-91170496D01*
X115175000Y-91195000D01*
X115175000Y-92120000D01*
X115173796Y-92144504D01*
X115170196Y-92168773D01*
X115164235Y-92192571D01*
X115155970Y-92215671D01*
X115145480Y-92237849D01*
X115132867Y-92258893D01*
X115118253Y-92278598D01*
X115101777Y-92296777D01*
X115083598Y-92313253D01*
X115063893Y-92327867D01*
X115042849Y-92340480D01*
X115020671Y-92350970D01*
X114997571Y-92359235D01*
X114973773Y-92365196D01*
X114949504Y-92368796D01*
X114925000Y-92370000D01*
X113675000Y-92370000D01*
X113650496Y-92368796D01*
X113626227Y-92365196D01*
X113602429Y-92359235D01*
X113579329Y-92350970D01*
X113557151Y-92340480D01*
X113536107Y-92327867D01*
X113516402Y-92313253D01*
X113498223Y-92296777D01*
X113481747Y-92278598D01*
X113467133Y-92258893D01*
X113454520Y-92237849D01*
X113444030Y-92215671D01*
X113435765Y-92192571D01*
X113429804Y-92168773D01*
X113426204Y-92144504D01*
X113425000Y-92120000D01*
X113425000Y-91195000D01*
X113426204Y-91170496D01*
X113429804Y-91146227D01*
X113435765Y-91122429D01*
X113444030Y-91099329D01*
X113454520Y-91077151D01*
X113467133Y-91056107D01*
X113481747Y-91036402D01*
X113498223Y-91018223D01*
X113516402Y-91001747D01*
X113536107Y-90987133D01*
X113557151Y-90974520D01*
X113579329Y-90964030D01*
X113602429Y-90955765D01*
X113626227Y-90949804D01*
X113650496Y-90946204D01*
X113675000Y-90945000D01*
X114925000Y-90945000D01*
X114949504Y-90946204D01*
G37*
G36*
X114949504Y-87971204D02*
G01*
X114973773Y-87974804D01*
X114997571Y-87980765D01*
X115020671Y-87989030D01*
X115042849Y-87999520D01*
X115063893Y-88012133D01*
X115083598Y-88026747D01*
X115101777Y-88043223D01*
X115118253Y-88061402D01*
X115132867Y-88081107D01*
X115145480Y-88102151D01*
X115155970Y-88124329D01*
X115164235Y-88147429D01*
X115170196Y-88171227D01*
X115173796Y-88195496D01*
X115175000Y-88220000D01*
X115175000Y-89145000D01*
X115173796Y-89169504D01*
X115170196Y-89193773D01*
X115164235Y-89217571D01*
X115155970Y-89240671D01*
X115145480Y-89262849D01*
X115132867Y-89283893D01*
X115118253Y-89303598D01*
X115101777Y-89321777D01*
X115083598Y-89338253D01*
X115063893Y-89352867D01*
X115042849Y-89365480D01*
X115020671Y-89375970D01*
X114997571Y-89384235D01*
X114973773Y-89390196D01*
X114949504Y-89393796D01*
X114925000Y-89395000D01*
X113675000Y-89395000D01*
X113650496Y-89393796D01*
X113626227Y-89390196D01*
X113602429Y-89384235D01*
X113579329Y-89375970D01*
X113557151Y-89365480D01*
X113536107Y-89352867D01*
X113516402Y-89338253D01*
X113498223Y-89321777D01*
X113481747Y-89303598D01*
X113467133Y-89283893D01*
X113454520Y-89262849D01*
X113444030Y-89240671D01*
X113435765Y-89217571D01*
X113429804Y-89193773D01*
X113426204Y-89169504D01*
X113425000Y-89145000D01*
X113425000Y-88220000D01*
X113426204Y-88195496D01*
X113429804Y-88171227D01*
X113435765Y-88147429D01*
X113444030Y-88124329D01*
X113454520Y-88102151D01*
X113467133Y-88081107D01*
X113481747Y-88061402D01*
X113498223Y-88043223D01*
X113516402Y-88026747D01*
X113536107Y-88012133D01*
X113557151Y-87999520D01*
X113579329Y-87989030D01*
X113602429Y-87980765D01*
X113626227Y-87974804D01*
X113650496Y-87971204D01*
X113675000Y-87970000D01*
X114925000Y-87970000D01*
X114949504Y-87971204D01*
G37*
G36*
X114949504Y-74001204D02*
G01*
X114973773Y-74004804D01*
X114997571Y-74010765D01*
X115020671Y-74019030D01*
X115042849Y-74029520D01*
X115063893Y-74042133D01*
X115083598Y-74056747D01*
X115101777Y-74073223D01*
X115118253Y-74091402D01*
X115132867Y-74111107D01*
X115145480Y-74132151D01*
X115155970Y-74154329D01*
X115164235Y-74177429D01*
X115170196Y-74201227D01*
X115173796Y-74225496D01*
X115175000Y-74250000D01*
X115175000Y-75175000D01*
X115173796Y-75199504D01*
X115170196Y-75223773D01*
X115164235Y-75247571D01*
X115155970Y-75270671D01*
X115145480Y-75292849D01*
X115132867Y-75313893D01*
X115118253Y-75333598D01*
X115101777Y-75351777D01*
X115083598Y-75368253D01*
X115063893Y-75382867D01*
X115042849Y-75395480D01*
X115020671Y-75405970D01*
X114997571Y-75414235D01*
X114973773Y-75420196D01*
X114949504Y-75423796D01*
X114925000Y-75425000D01*
X113675000Y-75425000D01*
X113650496Y-75423796D01*
X113626227Y-75420196D01*
X113602429Y-75414235D01*
X113579329Y-75405970D01*
X113557151Y-75395480D01*
X113536107Y-75382867D01*
X113516402Y-75368253D01*
X113498223Y-75351777D01*
X113481747Y-75333598D01*
X113467133Y-75313893D01*
X113454520Y-75292849D01*
X113444030Y-75270671D01*
X113435765Y-75247571D01*
X113429804Y-75223773D01*
X113426204Y-75199504D01*
X113425000Y-75175000D01*
X113425000Y-74250000D01*
X113426204Y-74225496D01*
X113429804Y-74201227D01*
X113435765Y-74177429D01*
X113444030Y-74154329D01*
X113454520Y-74132151D01*
X113467133Y-74111107D01*
X113481747Y-74091402D01*
X113498223Y-74073223D01*
X113516402Y-74056747D01*
X113536107Y-74042133D01*
X113557151Y-74029520D01*
X113579329Y-74019030D01*
X113602429Y-74010765D01*
X113626227Y-74004804D01*
X113650496Y-74001204D01*
X113675000Y-74000000D01*
X114925000Y-74000000D01*
X114949504Y-74001204D01*
G37*
G36*
X114949504Y-76976204D02*
G01*
X114973773Y-76979804D01*
X114997571Y-76985765D01*
X115020671Y-76994030D01*
X115042849Y-77004520D01*
X115063893Y-77017133D01*
X115083598Y-77031747D01*
X115101777Y-77048223D01*
X115118253Y-77066402D01*
X115132867Y-77086107D01*
X115145480Y-77107151D01*
X115155970Y-77129329D01*
X115164235Y-77152429D01*
X115170196Y-77176227D01*
X115173796Y-77200496D01*
X115175000Y-77225000D01*
X115175000Y-78150000D01*
X115173796Y-78174504D01*
X115170196Y-78198773D01*
X115164235Y-78222571D01*
X115155970Y-78245671D01*
X115145480Y-78267849D01*
X115132867Y-78288893D01*
X115118253Y-78308598D01*
X115101777Y-78326777D01*
X115083598Y-78343253D01*
X115063893Y-78357867D01*
X115042849Y-78370480D01*
X115020671Y-78380970D01*
X114997571Y-78389235D01*
X114973773Y-78395196D01*
X114949504Y-78398796D01*
X114925000Y-78400000D01*
X113675000Y-78400000D01*
X113650496Y-78398796D01*
X113626227Y-78395196D01*
X113602429Y-78389235D01*
X113579329Y-78380970D01*
X113557151Y-78370480D01*
X113536107Y-78357867D01*
X113516402Y-78343253D01*
X113498223Y-78326777D01*
X113481747Y-78308598D01*
X113467133Y-78288893D01*
X113454520Y-78267849D01*
X113444030Y-78245671D01*
X113435765Y-78222571D01*
X113429804Y-78198773D01*
X113426204Y-78174504D01*
X113425000Y-78150000D01*
X113425000Y-77225000D01*
X113426204Y-77200496D01*
X113429804Y-77176227D01*
X113435765Y-77152429D01*
X113444030Y-77129329D01*
X113454520Y-77107151D01*
X113467133Y-77086107D01*
X113481747Y-77066402D01*
X113498223Y-77048223D01*
X113516402Y-77031747D01*
X113536107Y-77017133D01*
X113557151Y-77004520D01*
X113579329Y-76994030D01*
X113602429Y-76985765D01*
X113626227Y-76979804D01*
X113650496Y-76976204D01*
X113675000Y-76975000D01*
X114925000Y-76975000D01*
X114949504Y-76976204D01*
G37*
G36*
X114949504Y-54116204D02*
G01*
X114973773Y-54119804D01*
X114997571Y-54125765D01*
X115020671Y-54134030D01*
X115042849Y-54144520D01*
X115063893Y-54157133D01*
X115083598Y-54171747D01*
X115101777Y-54188223D01*
X115118253Y-54206402D01*
X115132867Y-54226107D01*
X115145480Y-54247151D01*
X115155970Y-54269329D01*
X115164235Y-54292429D01*
X115170196Y-54316227D01*
X115173796Y-54340496D01*
X115175000Y-54365000D01*
X115175000Y-55290000D01*
X115173796Y-55314504D01*
X115170196Y-55338773D01*
X115164235Y-55362571D01*
X115155970Y-55385671D01*
X115145480Y-55407849D01*
X115132867Y-55428893D01*
X115118253Y-55448598D01*
X115101777Y-55466777D01*
X115083598Y-55483253D01*
X115063893Y-55497867D01*
X115042849Y-55510480D01*
X115020671Y-55520970D01*
X114997571Y-55529235D01*
X114973773Y-55535196D01*
X114949504Y-55538796D01*
X114925000Y-55540000D01*
X113675000Y-55540000D01*
X113650496Y-55538796D01*
X113626227Y-55535196D01*
X113602429Y-55529235D01*
X113579329Y-55520970D01*
X113557151Y-55510480D01*
X113536107Y-55497867D01*
X113516402Y-55483253D01*
X113498223Y-55466777D01*
X113481747Y-55448598D01*
X113467133Y-55428893D01*
X113454520Y-55407849D01*
X113444030Y-55385671D01*
X113435765Y-55362571D01*
X113429804Y-55338773D01*
X113426204Y-55314504D01*
X113425000Y-55290000D01*
X113425000Y-54365000D01*
X113426204Y-54340496D01*
X113429804Y-54316227D01*
X113435765Y-54292429D01*
X113444030Y-54269329D01*
X113454520Y-54247151D01*
X113467133Y-54226107D01*
X113481747Y-54206402D01*
X113498223Y-54188223D01*
X113516402Y-54171747D01*
X113536107Y-54157133D01*
X113557151Y-54144520D01*
X113579329Y-54134030D01*
X113602429Y-54125765D01*
X113626227Y-54119804D01*
X113650496Y-54116204D01*
X113675000Y-54115000D01*
X114925000Y-54115000D01*
X114949504Y-54116204D01*
G37*
G36*
X114949504Y-51141204D02*
G01*
X114973773Y-51144804D01*
X114997571Y-51150765D01*
X115020671Y-51159030D01*
X115042849Y-51169520D01*
X115063893Y-51182133D01*
X115083598Y-51196747D01*
X115101777Y-51213223D01*
X115118253Y-51231402D01*
X115132867Y-51251107D01*
X115145480Y-51272151D01*
X115155970Y-51294329D01*
X115164235Y-51317429D01*
X115170196Y-51341227D01*
X115173796Y-51365496D01*
X115175000Y-51390000D01*
X115175000Y-52315000D01*
X115173796Y-52339504D01*
X115170196Y-52363773D01*
X115164235Y-52387571D01*
X115155970Y-52410671D01*
X115145480Y-52432849D01*
X115132867Y-52453893D01*
X115118253Y-52473598D01*
X115101777Y-52491777D01*
X115083598Y-52508253D01*
X115063893Y-52522867D01*
X115042849Y-52535480D01*
X115020671Y-52545970D01*
X114997571Y-52554235D01*
X114973773Y-52560196D01*
X114949504Y-52563796D01*
X114925000Y-52565000D01*
X113675000Y-52565000D01*
X113650496Y-52563796D01*
X113626227Y-52560196D01*
X113602429Y-52554235D01*
X113579329Y-52545970D01*
X113557151Y-52535480D01*
X113536107Y-52522867D01*
X113516402Y-52508253D01*
X113498223Y-52491777D01*
X113481747Y-52473598D01*
X113467133Y-52453893D01*
X113454520Y-52432849D01*
X113444030Y-52410671D01*
X113435765Y-52387571D01*
X113429804Y-52363773D01*
X113426204Y-52339504D01*
X113425000Y-52315000D01*
X113425000Y-51390000D01*
X113426204Y-51365496D01*
X113429804Y-51341227D01*
X113435765Y-51317429D01*
X113444030Y-51294329D01*
X113454520Y-51272151D01*
X113467133Y-51251107D01*
X113481747Y-51231402D01*
X113498223Y-51213223D01*
X113516402Y-51196747D01*
X113536107Y-51182133D01*
X113557151Y-51169520D01*
X113579329Y-51159030D01*
X113602429Y-51150765D01*
X113626227Y-51144804D01*
X113650496Y-51141204D01*
X113675000Y-51140000D01*
X114925000Y-51140000D01*
X114949504Y-51141204D01*
G37*
G36*
X114949504Y-37171204D02*
G01*
X114973773Y-37174804D01*
X114997571Y-37180765D01*
X115020671Y-37189030D01*
X115042849Y-37199520D01*
X115063893Y-37212133D01*
X115083598Y-37226747D01*
X115101777Y-37243223D01*
X115118253Y-37261402D01*
X115132867Y-37281107D01*
X115145480Y-37302151D01*
X115155970Y-37324329D01*
X115164235Y-37347429D01*
X115170196Y-37371227D01*
X115173796Y-37395496D01*
X115175000Y-37420000D01*
X115175000Y-38345000D01*
X115173796Y-38369504D01*
X115170196Y-38393773D01*
X115164235Y-38417571D01*
X115155970Y-38440671D01*
X115145480Y-38462849D01*
X115132867Y-38483893D01*
X115118253Y-38503598D01*
X115101777Y-38521777D01*
X115083598Y-38538253D01*
X115063893Y-38552867D01*
X115042849Y-38565480D01*
X115020671Y-38575970D01*
X114997571Y-38584235D01*
X114973773Y-38590196D01*
X114949504Y-38593796D01*
X114925000Y-38595000D01*
X113675000Y-38595000D01*
X113650496Y-38593796D01*
X113626227Y-38590196D01*
X113602429Y-38584235D01*
X113579329Y-38575970D01*
X113557151Y-38565480D01*
X113536107Y-38552867D01*
X113516402Y-38538253D01*
X113498223Y-38521777D01*
X113481747Y-38503598D01*
X113467133Y-38483893D01*
X113454520Y-38462849D01*
X113444030Y-38440671D01*
X113435765Y-38417571D01*
X113429804Y-38393773D01*
X113426204Y-38369504D01*
X113425000Y-38345000D01*
X113425000Y-37420000D01*
X113426204Y-37395496D01*
X113429804Y-37371227D01*
X113435765Y-37347429D01*
X113444030Y-37324329D01*
X113454520Y-37302151D01*
X113467133Y-37281107D01*
X113481747Y-37261402D01*
X113498223Y-37243223D01*
X113516402Y-37226747D01*
X113536107Y-37212133D01*
X113557151Y-37199520D01*
X113579329Y-37189030D01*
X113602429Y-37180765D01*
X113626227Y-37174804D01*
X113650496Y-37171204D01*
X113675000Y-37170000D01*
X114925000Y-37170000D01*
X114949504Y-37171204D01*
G37*
G36*
X114949504Y-40146204D02*
G01*
X114973773Y-40149804D01*
X114997571Y-40155765D01*
X115020671Y-40164030D01*
X115042849Y-40174520D01*
X115063893Y-40187133D01*
X115083598Y-40201747D01*
X115101777Y-40218223D01*
X115118253Y-40236402D01*
X115132867Y-40256107D01*
X115145480Y-40277151D01*
X115155970Y-40299329D01*
X115164235Y-40322429D01*
X115170196Y-40346227D01*
X115173796Y-40370496D01*
X115175000Y-40395000D01*
X115175000Y-41320000D01*
X115173796Y-41344504D01*
X115170196Y-41368773D01*
X115164235Y-41392571D01*
X115155970Y-41415671D01*
X115145480Y-41437849D01*
X115132867Y-41458893D01*
X115118253Y-41478598D01*
X115101777Y-41496777D01*
X115083598Y-41513253D01*
X115063893Y-41527867D01*
X115042849Y-41540480D01*
X115020671Y-41550970D01*
X114997571Y-41559235D01*
X114973773Y-41565196D01*
X114949504Y-41568796D01*
X114925000Y-41570000D01*
X113675000Y-41570000D01*
X113650496Y-41568796D01*
X113626227Y-41565196D01*
X113602429Y-41559235D01*
X113579329Y-41550970D01*
X113557151Y-41540480D01*
X113536107Y-41527867D01*
X113516402Y-41513253D01*
X113498223Y-41496777D01*
X113481747Y-41478598D01*
X113467133Y-41458893D01*
X113454520Y-41437849D01*
X113444030Y-41415671D01*
X113435765Y-41392571D01*
X113429804Y-41368773D01*
X113426204Y-41344504D01*
X113425000Y-41320000D01*
X113425000Y-40395000D01*
X113426204Y-40370496D01*
X113429804Y-40346227D01*
X113435765Y-40322429D01*
X113444030Y-40299329D01*
X113454520Y-40277151D01*
X113467133Y-40256107D01*
X113481747Y-40236402D01*
X113498223Y-40218223D01*
X113516402Y-40201747D01*
X113536107Y-40187133D01*
X113557151Y-40174520D01*
X113579329Y-40164030D01*
X113602429Y-40155765D01*
X113626227Y-40149804D01*
X113650496Y-40146204D01*
X113675000Y-40145000D01*
X114925000Y-40145000D01*
X114949504Y-40146204D01*
G37*
G36*
X114949504Y-167981204D02*
G01*
X114973773Y-167984804D01*
X114997571Y-167990765D01*
X115020671Y-167999030D01*
X115042849Y-168009520D01*
X115063893Y-168022133D01*
X115083598Y-168036747D01*
X115101777Y-168053223D01*
X115118253Y-168071402D01*
X115132867Y-168091107D01*
X115145480Y-168112151D01*
X115155970Y-168134329D01*
X115164235Y-168157429D01*
X115170196Y-168181227D01*
X115173796Y-168205496D01*
X115175000Y-168230000D01*
X115175000Y-169155000D01*
X115173796Y-169179504D01*
X115170196Y-169203773D01*
X115164235Y-169227571D01*
X115155970Y-169250671D01*
X115145480Y-169272849D01*
X115132867Y-169293893D01*
X115118253Y-169313598D01*
X115101777Y-169331777D01*
X115083598Y-169348253D01*
X115063893Y-169362867D01*
X115042849Y-169375480D01*
X115020671Y-169385970D01*
X114997571Y-169394235D01*
X114973773Y-169400196D01*
X114949504Y-169403796D01*
X114925000Y-169405000D01*
X113675000Y-169405000D01*
X113650496Y-169403796D01*
X113626227Y-169400196D01*
X113602429Y-169394235D01*
X113579329Y-169385970D01*
X113557151Y-169375480D01*
X113536107Y-169362867D01*
X113516402Y-169348253D01*
X113498223Y-169331777D01*
X113481747Y-169313598D01*
X113467133Y-169293893D01*
X113454520Y-169272849D01*
X113444030Y-169250671D01*
X113435765Y-169227571D01*
X113429804Y-169203773D01*
X113426204Y-169179504D01*
X113425000Y-169155000D01*
X113425000Y-168230000D01*
X113426204Y-168205496D01*
X113429804Y-168181227D01*
X113435765Y-168157429D01*
X113444030Y-168134329D01*
X113454520Y-168112151D01*
X113467133Y-168091107D01*
X113481747Y-168071402D01*
X113498223Y-168053223D01*
X113516402Y-168036747D01*
X113536107Y-168022133D01*
X113557151Y-168009520D01*
X113579329Y-167999030D01*
X113602429Y-167990765D01*
X113626227Y-167984804D01*
X113650496Y-167981204D01*
X113675000Y-167980000D01*
X114925000Y-167980000D01*
X114949504Y-167981204D01*
G37*
G36*
X114949504Y-170956204D02*
G01*
X114973773Y-170959804D01*
X114997571Y-170965765D01*
X115020671Y-170974030D01*
X115042849Y-170984520D01*
X115063893Y-170997133D01*
X115083598Y-171011747D01*
X115101777Y-171028223D01*
X115118253Y-171046402D01*
X115132867Y-171066107D01*
X115145480Y-171087151D01*
X115155970Y-171109329D01*
X115164235Y-171132429D01*
X115170196Y-171156227D01*
X115173796Y-171180496D01*
X115175000Y-171205000D01*
X115175000Y-172130000D01*
X115173796Y-172154504D01*
X115170196Y-172178773D01*
X115164235Y-172202571D01*
X115155970Y-172225671D01*
X115145480Y-172247849D01*
X115132867Y-172268893D01*
X115118253Y-172288598D01*
X115101777Y-172306777D01*
X115083598Y-172323253D01*
X115063893Y-172337867D01*
X115042849Y-172350480D01*
X115020671Y-172360970D01*
X114997571Y-172369235D01*
X114973773Y-172375196D01*
X114949504Y-172378796D01*
X114925000Y-172380000D01*
X113675000Y-172380000D01*
X113650496Y-172378796D01*
X113626227Y-172375196D01*
X113602429Y-172369235D01*
X113579329Y-172360970D01*
X113557151Y-172350480D01*
X113536107Y-172337867D01*
X113516402Y-172323253D01*
X113498223Y-172306777D01*
X113481747Y-172288598D01*
X113467133Y-172268893D01*
X113454520Y-172247849D01*
X113444030Y-172225671D01*
X113435765Y-172202571D01*
X113429804Y-172178773D01*
X113426204Y-172154504D01*
X113425000Y-172130000D01*
X113425000Y-171205000D01*
X113426204Y-171180496D01*
X113429804Y-171156227D01*
X113435765Y-171132429D01*
X113444030Y-171109329D01*
X113454520Y-171087151D01*
X113467133Y-171066107D01*
X113481747Y-171046402D01*
X113498223Y-171028223D01*
X113516402Y-171011747D01*
X113536107Y-170997133D01*
X113557151Y-170984520D01*
X113579329Y-170974030D01*
X113602429Y-170965765D01*
X113626227Y-170959804D01*
X113650496Y-170956204D01*
X113675000Y-170955000D01*
X114925000Y-170955000D01*
X114949504Y-170956204D01*
G37*
G36*
X114949504Y-144286204D02*
G01*
X114973773Y-144289804D01*
X114997571Y-144295765D01*
X115020671Y-144304030D01*
X115042849Y-144314520D01*
X115063893Y-144327133D01*
X115083598Y-144341747D01*
X115101777Y-144358223D01*
X115118253Y-144376402D01*
X115132867Y-144396107D01*
X115145480Y-144417151D01*
X115155970Y-144439329D01*
X115164235Y-144462429D01*
X115170196Y-144486227D01*
X115173796Y-144510496D01*
X115175000Y-144535000D01*
X115175000Y-145460000D01*
X115173796Y-145484504D01*
X115170196Y-145508773D01*
X115164235Y-145532571D01*
X115155970Y-145555671D01*
X115145480Y-145577849D01*
X115132867Y-145598893D01*
X115118253Y-145618598D01*
X115101777Y-145636777D01*
X115083598Y-145653253D01*
X115063893Y-145667867D01*
X115042849Y-145680480D01*
X115020671Y-145690970D01*
X114997571Y-145699235D01*
X114973773Y-145705196D01*
X114949504Y-145708796D01*
X114925000Y-145710000D01*
X113675000Y-145710000D01*
X113650496Y-145708796D01*
X113626227Y-145705196D01*
X113602429Y-145699235D01*
X113579329Y-145690970D01*
X113557151Y-145680480D01*
X113536107Y-145667867D01*
X113516402Y-145653253D01*
X113498223Y-145636777D01*
X113481747Y-145618598D01*
X113467133Y-145598893D01*
X113454520Y-145577849D01*
X113444030Y-145555671D01*
X113435765Y-145532571D01*
X113429804Y-145508773D01*
X113426204Y-145484504D01*
X113425000Y-145460000D01*
X113425000Y-144535000D01*
X113426204Y-144510496D01*
X113429804Y-144486227D01*
X113435765Y-144462429D01*
X113444030Y-144439329D01*
X113454520Y-144417151D01*
X113467133Y-144396107D01*
X113481747Y-144376402D01*
X113498223Y-144358223D01*
X113516402Y-144341747D01*
X113536107Y-144327133D01*
X113557151Y-144314520D01*
X113579329Y-144304030D01*
X113602429Y-144295765D01*
X113626227Y-144289804D01*
X113650496Y-144286204D01*
X113675000Y-144285000D01*
X114925000Y-144285000D01*
X114949504Y-144286204D01*
G37*
G36*
X114949504Y-141311204D02*
G01*
X114973773Y-141314804D01*
X114997571Y-141320765D01*
X115020671Y-141329030D01*
X115042849Y-141339520D01*
X115063893Y-141352133D01*
X115083598Y-141366747D01*
X115101777Y-141383223D01*
X115118253Y-141401402D01*
X115132867Y-141421107D01*
X115145480Y-141442151D01*
X115155970Y-141464329D01*
X115164235Y-141487429D01*
X115170196Y-141511227D01*
X115173796Y-141535496D01*
X115175000Y-141560000D01*
X115175000Y-142485000D01*
X115173796Y-142509504D01*
X115170196Y-142533773D01*
X115164235Y-142557571D01*
X115155970Y-142580671D01*
X115145480Y-142602849D01*
X115132867Y-142623893D01*
X115118253Y-142643598D01*
X115101777Y-142661777D01*
X115083598Y-142678253D01*
X115063893Y-142692867D01*
X115042849Y-142705480D01*
X115020671Y-142715970D01*
X114997571Y-142724235D01*
X114973773Y-142730196D01*
X114949504Y-142733796D01*
X114925000Y-142735000D01*
X113675000Y-142735000D01*
X113650496Y-142733796D01*
X113626227Y-142730196D01*
X113602429Y-142724235D01*
X113579329Y-142715970D01*
X113557151Y-142705480D01*
X113536107Y-142692867D01*
X113516402Y-142678253D01*
X113498223Y-142661777D01*
X113481747Y-142643598D01*
X113467133Y-142623893D01*
X113454520Y-142602849D01*
X113444030Y-142580671D01*
X113435765Y-142557571D01*
X113429804Y-142533773D01*
X113426204Y-142509504D01*
X113425000Y-142485000D01*
X113425000Y-141560000D01*
X113426204Y-141535496D01*
X113429804Y-141511227D01*
X113435765Y-141487429D01*
X113444030Y-141464329D01*
X113454520Y-141442151D01*
X113467133Y-141421107D01*
X113481747Y-141401402D01*
X113498223Y-141383223D01*
X113516402Y-141366747D01*
X113536107Y-141352133D01*
X113557151Y-141339520D01*
X113579329Y-141329030D01*
X113602429Y-141320765D01*
X113626227Y-141314804D01*
X113650496Y-141311204D01*
X113675000Y-141310000D01*
X114925000Y-141310000D01*
X114949504Y-141311204D01*
G37*
G36*
X114949504Y-131151204D02*
G01*
X114973773Y-131154804D01*
X114997571Y-131160765D01*
X115020671Y-131169030D01*
X115042849Y-131179520D01*
X115063893Y-131192133D01*
X115083598Y-131206747D01*
X115101777Y-131223223D01*
X115118253Y-131241402D01*
X115132867Y-131261107D01*
X115145480Y-131282151D01*
X115155970Y-131304329D01*
X115164235Y-131327429D01*
X115170196Y-131351227D01*
X115173796Y-131375496D01*
X115175000Y-131400000D01*
X115175000Y-132325000D01*
X115173796Y-132349504D01*
X115170196Y-132373773D01*
X115164235Y-132397571D01*
X115155970Y-132420671D01*
X115145480Y-132442849D01*
X115132867Y-132463893D01*
X115118253Y-132483598D01*
X115101777Y-132501777D01*
X115083598Y-132518253D01*
X115063893Y-132532867D01*
X115042849Y-132545480D01*
X115020671Y-132555970D01*
X114997571Y-132564235D01*
X114973773Y-132570196D01*
X114949504Y-132573796D01*
X114925000Y-132575000D01*
X113675000Y-132575000D01*
X113650496Y-132573796D01*
X113626227Y-132570196D01*
X113602429Y-132564235D01*
X113579329Y-132555970D01*
X113557151Y-132545480D01*
X113536107Y-132532867D01*
X113516402Y-132518253D01*
X113498223Y-132501777D01*
X113481747Y-132483598D01*
X113467133Y-132463893D01*
X113454520Y-132442849D01*
X113444030Y-132420671D01*
X113435765Y-132397571D01*
X113429804Y-132373773D01*
X113426204Y-132349504D01*
X113425000Y-132325000D01*
X113425000Y-131400000D01*
X113426204Y-131375496D01*
X113429804Y-131351227D01*
X113435765Y-131327429D01*
X113444030Y-131304329D01*
X113454520Y-131282151D01*
X113467133Y-131261107D01*
X113481747Y-131241402D01*
X113498223Y-131223223D01*
X113516402Y-131206747D01*
X113536107Y-131192133D01*
X113557151Y-131179520D01*
X113579329Y-131169030D01*
X113602429Y-131160765D01*
X113626227Y-131154804D01*
X113650496Y-131151204D01*
X113675000Y-131150000D01*
X114925000Y-131150000D01*
X114949504Y-131151204D01*
G37*
G36*
X114949504Y-134126204D02*
G01*
X114973773Y-134129804D01*
X114997571Y-134135765D01*
X115020671Y-134144030D01*
X115042849Y-134154520D01*
X115063893Y-134167133D01*
X115083598Y-134181747D01*
X115101777Y-134198223D01*
X115118253Y-134216402D01*
X115132867Y-134236107D01*
X115145480Y-134257151D01*
X115155970Y-134279329D01*
X115164235Y-134302429D01*
X115170196Y-134326227D01*
X115173796Y-134350496D01*
X115175000Y-134375000D01*
X115175000Y-135300000D01*
X115173796Y-135324504D01*
X115170196Y-135348773D01*
X115164235Y-135372571D01*
X115155970Y-135395671D01*
X115145480Y-135417849D01*
X115132867Y-135438893D01*
X115118253Y-135458598D01*
X115101777Y-135476777D01*
X115083598Y-135493253D01*
X115063893Y-135507867D01*
X115042849Y-135520480D01*
X115020671Y-135530970D01*
X114997571Y-135539235D01*
X114973773Y-135545196D01*
X114949504Y-135548796D01*
X114925000Y-135550000D01*
X113675000Y-135550000D01*
X113650496Y-135548796D01*
X113626227Y-135545196D01*
X113602429Y-135539235D01*
X113579329Y-135530970D01*
X113557151Y-135520480D01*
X113536107Y-135507867D01*
X113516402Y-135493253D01*
X113498223Y-135476777D01*
X113481747Y-135458598D01*
X113467133Y-135438893D01*
X113454520Y-135417849D01*
X113444030Y-135395671D01*
X113435765Y-135372571D01*
X113429804Y-135348773D01*
X113426204Y-135324504D01*
X113425000Y-135300000D01*
X113425000Y-134375000D01*
X113426204Y-134350496D01*
X113429804Y-134326227D01*
X113435765Y-134302429D01*
X113444030Y-134279329D01*
X113454520Y-134257151D01*
X113467133Y-134236107D01*
X113481747Y-134216402D01*
X113498223Y-134198223D01*
X113516402Y-134181747D01*
X113536107Y-134167133D01*
X113557151Y-134154520D01*
X113579329Y-134144030D01*
X113602429Y-134135765D01*
X113626227Y-134129804D01*
X113650496Y-134126204D01*
X113675000Y-134125000D01*
X114925000Y-134125000D01*
X114949504Y-134126204D01*
G37*
G36*
X114949504Y-107456204D02*
G01*
X114973773Y-107459804D01*
X114997571Y-107465765D01*
X115020671Y-107474030D01*
X115042849Y-107484520D01*
X115063893Y-107497133D01*
X115083598Y-107511747D01*
X115101777Y-107528223D01*
X115118253Y-107546402D01*
X115132867Y-107566107D01*
X115145480Y-107587151D01*
X115155970Y-107609329D01*
X115164235Y-107632429D01*
X115170196Y-107656227D01*
X115173796Y-107680496D01*
X115175000Y-107705000D01*
X115175000Y-108630000D01*
X115173796Y-108654504D01*
X115170196Y-108678773D01*
X115164235Y-108702571D01*
X115155970Y-108725671D01*
X115145480Y-108747849D01*
X115132867Y-108768893D01*
X115118253Y-108788598D01*
X115101777Y-108806777D01*
X115083598Y-108823253D01*
X115063893Y-108837867D01*
X115042849Y-108850480D01*
X115020671Y-108860970D01*
X114997571Y-108869235D01*
X114973773Y-108875196D01*
X114949504Y-108878796D01*
X114925000Y-108880000D01*
X113675000Y-108880000D01*
X113650496Y-108878796D01*
X113626227Y-108875196D01*
X113602429Y-108869235D01*
X113579329Y-108860970D01*
X113557151Y-108850480D01*
X113536107Y-108837867D01*
X113516402Y-108823253D01*
X113498223Y-108806777D01*
X113481747Y-108788598D01*
X113467133Y-108768893D01*
X113454520Y-108747849D01*
X113444030Y-108725671D01*
X113435765Y-108702571D01*
X113429804Y-108678773D01*
X113426204Y-108654504D01*
X113425000Y-108630000D01*
X113425000Y-107705000D01*
X113426204Y-107680496D01*
X113429804Y-107656227D01*
X113435765Y-107632429D01*
X113444030Y-107609329D01*
X113454520Y-107587151D01*
X113467133Y-107566107D01*
X113481747Y-107546402D01*
X113498223Y-107528223D01*
X113516402Y-107511747D01*
X113536107Y-107497133D01*
X113557151Y-107484520D01*
X113579329Y-107474030D01*
X113602429Y-107465765D01*
X113626227Y-107459804D01*
X113650496Y-107456204D01*
X113675000Y-107455000D01*
X114925000Y-107455000D01*
X114949504Y-107456204D01*
G37*
G36*
X114949504Y-104481204D02*
G01*
X114973773Y-104484804D01*
X114997571Y-104490765D01*
X115020671Y-104499030D01*
X115042849Y-104509520D01*
X115063893Y-104522133D01*
X115083598Y-104536747D01*
X115101777Y-104553223D01*
X115118253Y-104571402D01*
X115132867Y-104591107D01*
X115145480Y-104612151D01*
X115155970Y-104634329D01*
X115164235Y-104657429D01*
X115170196Y-104681227D01*
X115173796Y-104705496D01*
X115175000Y-104730000D01*
X115175000Y-105655000D01*
X115173796Y-105679504D01*
X115170196Y-105703773D01*
X115164235Y-105727571D01*
X115155970Y-105750671D01*
X115145480Y-105772849D01*
X115132867Y-105793893D01*
X115118253Y-105813598D01*
X115101777Y-105831777D01*
X115083598Y-105848253D01*
X115063893Y-105862867D01*
X115042849Y-105875480D01*
X115020671Y-105885970D01*
X114997571Y-105894235D01*
X114973773Y-105900196D01*
X114949504Y-105903796D01*
X114925000Y-105905000D01*
X113675000Y-105905000D01*
X113650496Y-105903796D01*
X113626227Y-105900196D01*
X113602429Y-105894235D01*
X113579329Y-105885970D01*
X113557151Y-105875480D01*
X113536107Y-105862867D01*
X113516402Y-105848253D01*
X113498223Y-105831777D01*
X113481747Y-105813598D01*
X113467133Y-105793893D01*
X113454520Y-105772849D01*
X113444030Y-105750671D01*
X113435765Y-105727571D01*
X113429804Y-105703773D01*
X113426204Y-105679504D01*
X113425000Y-105655000D01*
X113425000Y-104730000D01*
X113426204Y-104705496D01*
X113429804Y-104681227D01*
X113435765Y-104657429D01*
X113444030Y-104634329D01*
X113454520Y-104612151D01*
X113467133Y-104591107D01*
X113481747Y-104571402D01*
X113498223Y-104553223D01*
X113516402Y-104536747D01*
X113536107Y-104522133D01*
X113557151Y-104509520D01*
X113579329Y-104499030D01*
X113602429Y-104490765D01*
X113626227Y-104484804D01*
X113650496Y-104481204D01*
X113675000Y-104480000D01*
X114925000Y-104480000D01*
X114949504Y-104481204D01*
G37*
G36*
X114949504Y-94321204D02*
G01*
X114973773Y-94324804D01*
X114997571Y-94330765D01*
X115020671Y-94339030D01*
X115042849Y-94349520D01*
X115063893Y-94362133D01*
X115083598Y-94376747D01*
X115101777Y-94393223D01*
X115118253Y-94411402D01*
X115132867Y-94431107D01*
X115145480Y-94452151D01*
X115155970Y-94474329D01*
X115164235Y-94497429D01*
X115170196Y-94521227D01*
X115173796Y-94545496D01*
X115175000Y-94570000D01*
X115175000Y-95495000D01*
X115173796Y-95519504D01*
X115170196Y-95543773D01*
X115164235Y-95567571D01*
X115155970Y-95590671D01*
X115145480Y-95612849D01*
X115132867Y-95633893D01*
X115118253Y-95653598D01*
X115101777Y-95671777D01*
X115083598Y-95688253D01*
X115063893Y-95702867D01*
X115042849Y-95715480D01*
X115020671Y-95725970D01*
X114997571Y-95734235D01*
X114973773Y-95740196D01*
X114949504Y-95743796D01*
X114925000Y-95745000D01*
X113675000Y-95745000D01*
X113650496Y-95743796D01*
X113626227Y-95740196D01*
X113602429Y-95734235D01*
X113579329Y-95725970D01*
X113557151Y-95715480D01*
X113536107Y-95702867D01*
X113516402Y-95688253D01*
X113498223Y-95671777D01*
X113481747Y-95653598D01*
X113467133Y-95633893D01*
X113454520Y-95612849D01*
X113444030Y-95590671D01*
X113435765Y-95567571D01*
X113429804Y-95543773D01*
X113426204Y-95519504D01*
X113425000Y-95495000D01*
X113425000Y-94570000D01*
X113426204Y-94545496D01*
X113429804Y-94521227D01*
X113435765Y-94497429D01*
X113444030Y-94474329D01*
X113454520Y-94452151D01*
X113467133Y-94431107D01*
X113481747Y-94411402D01*
X113498223Y-94393223D01*
X113516402Y-94376747D01*
X113536107Y-94362133D01*
X113557151Y-94349520D01*
X113579329Y-94339030D01*
X113602429Y-94330765D01*
X113626227Y-94324804D01*
X113650496Y-94321204D01*
X113675000Y-94320000D01*
X114925000Y-94320000D01*
X114949504Y-94321204D01*
G37*
G36*
X114949504Y-97296204D02*
G01*
X114973773Y-97299804D01*
X114997571Y-97305765D01*
X115020671Y-97314030D01*
X115042849Y-97324520D01*
X115063893Y-97337133D01*
X115083598Y-97351747D01*
X115101777Y-97368223D01*
X115118253Y-97386402D01*
X115132867Y-97406107D01*
X115145480Y-97427151D01*
X115155970Y-97449329D01*
X115164235Y-97472429D01*
X115170196Y-97496227D01*
X115173796Y-97520496D01*
X115175000Y-97545000D01*
X115175000Y-98470000D01*
X115173796Y-98494504D01*
X115170196Y-98518773D01*
X115164235Y-98542571D01*
X115155970Y-98565671D01*
X115145480Y-98587849D01*
X115132867Y-98608893D01*
X115118253Y-98628598D01*
X115101777Y-98646777D01*
X115083598Y-98663253D01*
X115063893Y-98677867D01*
X115042849Y-98690480D01*
X115020671Y-98700970D01*
X114997571Y-98709235D01*
X114973773Y-98715196D01*
X114949504Y-98718796D01*
X114925000Y-98720000D01*
X113675000Y-98720000D01*
X113650496Y-98718796D01*
X113626227Y-98715196D01*
X113602429Y-98709235D01*
X113579329Y-98700970D01*
X113557151Y-98690480D01*
X113536107Y-98677867D01*
X113516402Y-98663253D01*
X113498223Y-98646777D01*
X113481747Y-98628598D01*
X113467133Y-98608893D01*
X113454520Y-98587849D01*
X113444030Y-98565671D01*
X113435765Y-98542571D01*
X113429804Y-98518773D01*
X113426204Y-98494504D01*
X113425000Y-98470000D01*
X113425000Y-97545000D01*
X113426204Y-97520496D01*
X113429804Y-97496227D01*
X113435765Y-97472429D01*
X113444030Y-97449329D01*
X113454520Y-97427151D01*
X113467133Y-97406107D01*
X113481747Y-97386402D01*
X113498223Y-97368223D01*
X113516402Y-97351747D01*
X113536107Y-97337133D01*
X113557151Y-97324520D01*
X113579329Y-97314030D01*
X113602429Y-97305765D01*
X113626227Y-97299804D01*
X113650496Y-97296204D01*
X113675000Y-97295000D01*
X114925000Y-97295000D01*
X114949504Y-97296204D01*
G37*
G36*
X114949504Y-70626204D02*
G01*
X114973773Y-70629804D01*
X114997571Y-70635765D01*
X115020671Y-70644030D01*
X115042849Y-70654520D01*
X115063893Y-70667133D01*
X115083598Y-70681747D01*
X115101777Y-70698223D01*
X115118253Y-70716402D01*
X115132867Y-70736107D01*
X115145480Y-70757151D01*
X115155970Y-70779329D01*
X115164235Y-70802429D01*
X115170196Y-70826227D01*
X115173796Y-70850496D01*
X115175000Y-70875000D01*
X115175000Y-71800000D01*
X115173796Y-71824504D01*
X115170196Y-71848773D01*
X115164235Y-71872571D01*
X115155970Y-71895671D01*
X115145480Y-71917849D01*
X115132867Y-71938893D01*
X115118253Y-71958598D01*
X115101777Y-71976777D01*
X115083598Y-71993253D01*
X115063893Y-72007867D01*
X115042849Y-72020480D01*
X115020671Y-72030970D01*
X114997571Y-72039235D01*
X114973773Y-72045196D01*
X114949504Y-72048796D01*
X114925000Y-72050000D01*
X113675000Y-72050000D01*
X113650496Y-72048796D01*
X113626227Y-72045196D01*
X113602429Y-72039235D01*
X113579329Y-72030970D01*
X113557151Y-72020480D01*
X113536107Y-72007867D01*
X113516402Y-71993253D01*
X113498223Y-71976777D01*
X113481747Y-71958598D01*
X113467133Y-71938893D01*
X113454520Y-71917849D01*
X113444030Y-71895671D01*
X113435765Y-71872571D01*
X113429804Y-71848773D01*
X113426204Y-71824504D01*
X113425000Y-71800000D01*
X113425000Y-70875000D01*
X113426204Y-70850496D01*
X113429804Y-70826227D01*
X113435765Y-70802429D01*
X113444030Y-70779329D01*
X113454520Y-70757151D01*
X113467133Y-70736107D01*
X113481747Y-70716402D01*
X113498223Y-70698223D01*
X113516402Y-70681747D01*
X113536107Y-70667133D01*
X113557151Y-70654520D01*
X113579329Y-70644030D01*
X113602429Y-70635765D01*
X113626227Y-70629804D01*
X113650496Y-70626204D01*
X113675000Y-70625000D01*
X114925000Y-70625000D01*
X114949504Y-70626204D01*
G37*
G36*
X114949504Y-67651204D02*
G01*
X114973773Y-67654804D01*
X114997571Y-67660765D01*
X115020671Y-67669030D01*
X115042849Y-67679520D01*
X115063893Y-67692133D01*
X115083598Y-67706747D01*
X115101777Y-67723223D01*
X115118253Y-67741402D01*
X115132867Y-67761107D01*
X115145480Y-67782151D01*
X115155970Y-67804329D01*
X115164235Y-67827429D01*
X115170196Y-67851227D01*
X115173796Y-67875496D01*
X115175000Y-67900000D01*
X115175000Y-68825000D01*
X115173796Y-68849504D01*
X115170196Y-68873773D01*
X115164235Y-68897571D01*
X115155970Y-68920671D01*
X115145480Y-68942849D01*
X115132867Y-68963893D01*
X115118253Y-68983598D01*
X115101777Y-69001777D01*
X115083598Y-69018253D01*
X115063893Y-69032867D01*
X115042849Y-69045480D01*
X115020671Y-69055970D01*
X114997571Y-69064235D01*
X114973773Y-69070196D01*
X114949504Y-69073796D01*
X114925000Y-69075000D01*
X113675000Y-69075000D01*
X113650496Y-69073796D01*
X113626227Y-69070196D01*
X113602429Y-69064235D01*
X113579329Y-69055970D01*
X113557151Y-69045480D01*
X113536107Y-69032867D01*
X113516402Y-69018253D01*
X113498223Y-69001777D01*
X113481747Y-68983598D01*
X113467133Y-68963893D01*
X113454520Y-68942849D01*
X113444030Y-68920671D01*
X113435765Y-68897571D01*
X113429804Y-68873773D01*
X113426204Y-68849504D01*
X113425000Y-68825000D01*
X113425000Y-67900000D01*
X113426204Y-67875496D01*
X113429804Y-67851227D01*
X113435765Y-67827429D01*
X113444030Y-67804329D01*
X113454520Y-67782151D01*
X113467133Y-67761107D01*
X113481747Y-67741402D01*
X113498223Y-67723223D01*
X113516402Y-67706747D01*
X113536107Y-67692133D01*
X113557151Y-67679520D01*
X113579329Y-67669030D01*
X113602429Y-67660765D01*
X113626227Y-67654804D01*
X113650496Y-67651204D01*
X113675000Y-67650000D01*
X114925000Y-67650000D01*
X114949504Y-67651204D01*
G37*
G36*
X114949504Y-57491204D02*
G01*
X114973773Y-57494804D01*
X114997571Y-57500765D01*
X115020671Y-57509030D01*
X115042849Y-57519520D01*
X115063893Y-57532133D01*
X115083598Y-57546747D01*
X115101777Y-57563223D01*
X115118253Y-57581402D01*
X115132867Y-57601107D01*
X115145480Y-57622151D01*
X115155970Y-57644329D01*
X115164235Y-57667429D01*
X115170196Y-57691227D01*
X115173796Y-57715496D01*
X115175000Y-57740000D01*
X115175000Y-58665000D01*
X115173796Y-58689504D01*
X115170196Y-58713773D01*
X115164235Y-58737571D01*
X115155970Y-58760671D01*
X115145480Y-58782849D01*
X115132867Y-58803893D01*
X115118253Y-58823598D01*
X115101777Y-58841777D01*
X115083598Y-58858253D01*
X115063893Y-58872867D01*
X115042849Y-58885480D01*
X115020671Y-58895970D01*
X114997571Y-58904235D01*
X114973773Y-58910196D01*
X114949504Y-58913796D01*
X114925000Y-58915000D01*
X113675000Y-58915000D01*
X113650496Y-58913796D01*
X113626227Y-58910196D01*
X113602429Y-58904235D01*
X113579329Y-58895970D01*
X113557151Y-58885480D01*
X113536107Y-58872867D01*
X113516402Y-58858253D01*
X113498223Y-58841777D01*
X113481747Y-58823598D01*
X113467133Y-58803893D01*
X113454520Y-58782849D01*
X113444030Y-58760671D01*
X113435765Y-58737571D01*
X113429804Y-58713773D01*
X113426204Y-58689504D01*
X113425000Y-58665000D01*
X113425000Y-57740000D01*
X113426204Y-57715496D01*
X113429804Y-57691227D01*
X113435765Y-57667429D01*
X113444030Y-57644329D01*
X113454520Y-57622151D01*
X113467133Y-57601107D01*
X113481747Y-57581402D01*
X113498223Y-57563223D01*
X113516402Y-57546747D01*
X113536107Y-57532133D01*
X113557151Y-57519520D01*
X113579329Y-57509030D01*
X113602429Y-57500765D01*
X113626227Y-57494804D01*
X113650496Y-57491204D01*
X113675000Y-57490000D01*
X114925000Y-57490000D01*
X114949504Y-57491204D01*
G37*
G36*
X114949504Y-60466204D02*
G01*
X114973773Y-60469804D01*
X114997571Y-60475765D01*
X115020671Y-60484030D01*
X115042849Y-60494520D01*
X115063893Y-60507133D01*
X115083598Y-60521747D01*
X115101777Y-60538223D01*
X115118253Y-60556402D01*
X115132867Y-60576107D01*
X115145480Y-60597151D01*
X115155970Y-60619329D01*
X115164235Y-60642429D01*
X115170196Y-60666227D01*
X115173796Y-60690496D01*
X115175000Y-60715000D01*
X115175000Y-61640000D01*
X115173796Y-61664504D01*
X115170196Y-61688773D01*
X115164235Y-61712571D01*
X115155970Y-61735671D01*
X115145480Y-61757849D01*
X115132867Y-61778893D01*
X115118253Y-61798598D01*
X115101777Y-61816777D01*
X115083598Y-61833253D01*
X115063893Y-61847867D01*
X115042849Y-61860480D01*
X115020671Y-61870970D01*
X114997571Y-61879235D01*
X114973773Y-61885196D01*
X114949504Y-61888796D01*
X114925000Y-61890000D01*
X113675000Y-61890000D01*
X113650496Y-61888796D01*
X113626227Y-61885196D01*
X113602429Y-61879235D01*
X113579329Y-61870970D01*
X113557151Y-61860480D01*
X113536107Y-61847867D01*
X113516402Y-61833253D01*
X113498223Y-61816777D01*
X113481747Y-61798598D01*
X113467133Y-61778893D01*
X113454520Y-61757849D01*
X113444030Y-61735671D01*
X113435765Y-61712571D01*
X113429804Y-61688773D01*
X113426204Y-61664504D01*
X113425000Y-61640000D01*
X113425000Y-60715000D01*
X113426204Y-60690496D01*
X113429804Y-60666227D01*
X113435765Y-60642429D01*
X113444030Y-60619329D01*
X113454520Y-60597151D01*
X113467133Y-60576107D01*
X113481747Y-60556402D01*
X113498223Y-60538223D01*
X113516402Y-60521747D01*
X113536107Y-60507133D01*
X113557151Y-60494520D01*
X113579329Y-60484030D01*
X113602429Y-60475765D01*
X113626227Y-60469804D01*
X113650496Y-60466204D01*
X113675000Y-60465000D01*
X114925000Y-60465000D01*
X114949504Y-60466204D01*
G37*
G36*
X114949504Y-33796204D02*
G01*
X114973773Y-33799804D01*
X114997571Y-33805765D01*
X115020671Y-33814030D01*
X115042849Y-33824520D01*
X115063893Y-33837133D01*
X115083598Y-33851747D01*
X115101777Y-33868223D01*
X115118253Y-33886402D01*
X115132867Y-33906107D01*
X115145480Y-33927151D01*
X115155970Y-33949329D01*
X115164235Y-33972429D01*
X115170196Y-33996227D01*
X115173796Y-34020496D01*
X115175000Y-34045000D01*
X115175000Y-34970000D01*
X115173796Y-34994504D01*
X115170196Y-35018773D01*
X115164235Y-35042571D01*
X115155970Y-35065671D01*
X115145480Y-35087849D01*
X115132867Y-35108893D01*
X115118253Y-35128598D01*
X115101777Y-35146777D01*
X115083598Y-35163253D01*
X115063893Y-35177867D01*
X115042849Y-35190480D01*
X115020671Y-35200970D01*
X114997571Y-35209235D01*
X114973773Y-35215196D01*
X114949504Y-35218796D01*
X114925000Y-35220000D01*
X113675000Y-35220000D01*
X113650496Y-35218796D01*
X113626227Y-35215196D01*
X113602429Y-35209235D01*
X113579329Y-35200970D01*
X113557151Y-35190480D01*
X113536107Y-35177867D01*
X113516402Y-35163253D01*
X113498223Y-35146777D01*
X113481747Y-35128598D01*
X113467133Y-35108893D01*
X113454520Y-35087849D01*
X113444030Y-35065671D01*
X113435765Y-35042571D01*
X113429804Y-35018773D01*
X113426204Y-34994504D01*
X113425000Y-34970000D01*
X113425000Y-34045000D01*
X113426204Y-34020496D01*
X113429804Y-33996227D01*
X113435765Y-33972429D01*
X113444030Y-33949329D01*
X113454520Y-33927151D01*
X113467133Y-33906107D01*
X113481747Y-33886402D01*
X113498223Y-33868223D01*
X113516402Y-33851747D01*
X113536107Y-33837133D01*
X113557151Y-33824520D01*
X113579329Y-33814030D01*
X113602429Y-33805765D01*
X113626227Y-33799804D01*
X113650496Y-33796204D01*
X113675000Y-33795000D01*
X114925000Y-33795000D01*
X114949504Y-33796204D01*
G37*
G36*
X114949504Y-30821204D02*
G01*
X114973773Y-30824804D01*
X114997571Y-30830765D01*
X115020671Y-30839030D01*
X115042849Y-30849520D01*
X115063893Y-30862133D01*
X115083598Y-30876747D01*
X115101777Y-30893223D01*
X115118253Y-30911402D01*
X115132867Y-30931107D01*
X115145480Y-30952151D01*
X115155970Y-30974329D01*
X115164235Y-30997429D01*
X115170196Y-31021227D01*
X115173796Y-31045496D01*
X115175000Y-31070000D01*
X115175000Y-31995000D01*
X115173796Y-32019504D01*
X115170196Y-32043773D01*
X115164235Y-32067571D01*
X115155970Y-32090671D01*
X115145480Y-32112849D01*
X115132867Y-32133893D01*
X115118253Y-32153598D01*
X115101777Y-32171777D01*
X115083598Y-32188253D01*
X115063893Y-32202867D01*
X115042849Y-32215480D01*
X115020671Y-32225970D01*
X114997571Y-32234235D01*
X114973773Y-32240196D01*
X114949504Y-32243796D01*
X114925000Y-32245000D01*
X113675000Y-32245000D01*
X113650496Y-32243796D01*
X113626227Y-32240196D01*
X113602429Y-32234235D01*
X113579329Y-32225970D01*
X113557151Y-32215480D01*
X113536107Y-32202867D01*
X113516402Y-32188253D01*
X113498223Y-32171777D01*
X113481747Y-32153598D01*
X113467133Y-32133893D01*
X113454520Y-32112849D01*
X113444030Y-32090671D01*
X113435765Y-32067571D01*
X113429804Y-32043773D01*
X113426204Y-32019504D01*
X113425000Y-31995000D01*
X113425000Y-31070000D01*
X113426204Y-31045496D01*
X113429804Y-31021227D01*
X113435765Y-30997429D01*
X113444030Y-30974329D01*
X113454520Y-30952151D01*
X113467133Y-30931107D01*
X113481747Y-30911402D01*
X113498223Y-30893223D01*
X113516402Y-30876747D01*
X113536107Y-30862133D01*
X113557151Y-30849520D01*
X113579329Y-30839030D01*
X113602429Y-30830765D01*
X113626227Y-30824804D01*
X113650496Y-30821204D01*
X113675000Y-30820000D01*
X114925000Y-30820000D01*
X114949504Y-30821204D01*
G37*
M02*
